<svg version="1.1" xmlns="http://www.w3.org/2000/svg" viewBox="0 0 469.6210347452603 348.6896344989485" width="469.6210347452603" height="348.6896344989485">
  <!-- svg-source:excalidraw -->
  
  <defs>
    <style class="style-fonts">
      @font-face {
        font-family: "Virgil";
        src: url("https://excalidraw.com/Virgil.woff2");
      }
      @font-face {
        font-family: "Cascadia";
        src: url("https://excalidraw.com/Cascadia.woff2");
      }
    </style>
  </defs>
  <g stroke-linecap="round" transform="translate(10 10) rotate(0 224.81051737263016 164.34481724947426)"><path d="M0 0 L449.62 0 L449.62 328.69 L0 328.69" stroke="none" stroke-width="0" fill="#ffffff"></path><path d="M0 0 C142.92 0, 285.84 0, 449.62 0 M0 0 C171.42 0, 342.84 0, 449.62 0 M449.62 0 C449.62 82.7, 449.62 165.4, 449.62 328.69 M449.62 0 C449.62 70.28, 449.62 140.56, 449.62 328.69 M449.62 328.69 C273.83 328.69, 98.04 328.69, 0 328.69 M449.62 328.69 C287.44 328.69, 125.26 328.69, 0 328.69 M0 328.69 C0 205.52, 0 82.35, 0 0 M0 328.69 C0 258.32, 0 187.95, 0 0" stroke="#ffffff" stroke-width="1" fill="none"></path></g><g transform="translate(117.60338082939268 32.18967985695786) rotate(349.96955331094506 51.292623803421236 22.25906315997525)"><text x="0" y="30.518126319950497" font-family="Virgil, Segoe UI Emoji" font-size="34.84027277213518px" fill="#000000" text-anchor="start" style="white-space: pre;" direction="ltr">gotrim</text></g><g stroke-linecap="round"><g transform="translate(249.391394681434 203.64491736113348) rotate(70.7911098736198 4.523716781155599 -0.2270071087493477)" fill-rule="evenodd"><path d="M0 0 L4.91 6.25 L7.15 7.93 L9.68 7.15 L11.37 5.24 L5.8 -4.43 L2.32 -8.31 L-1.06 -7.09 L-2.31 -5.11 L0 0" stroke="none" stroke-width="0" fill="#ffffff" fill-rule="evenodd"></path><path d="M0 0 C0.47 0.63, 1.65 2.45, 2.84 3.77 C4.03 5.09, 5.73 7.69, 7.15 7.93 C8.57 8.18, 11.08 6.49, 11.37 5.24 C11.66 3.98, 9.82 2.02, 8.89 0.41 C7.96 -1.2, 6.89 -2.97, 5.8 -4.43 C4.71 -5.88, 3.47 -7.86, 2.32 -8.31 C1.18 -8.75, -0.29 -7.62, -1.06 -7.09 C-1.83 -6.55, -2.18 -5.78, -2.31 -5.11 C-2.44 -4.44, -2.23 -3.91, -1.84 -3.06 C-1.46 -2.21, -0.31 -0.51, 0 0 M0 0 C0.47 0.63, 1.65 2.45, 2.84 3.77 C4.03 5.09, 5.73 7.69, 7.15 7.93 C8.57 8.18, 11.08 6.49, 11.37 5.24 C11.66 3.98, 9.82 2.02, 8.89 0.41 C7.96 -1.2, 6.89 -2.97, 5.8 -4.43 C4.71 -5.88, 3.47 -7.86, 2.32 -8.31 C1.18 -8.75, -0.29 -7.62, -1.06 -7.09 C-1.83 -6.55, -2.18 -5.78, -2.31 -5.11 C-2.44 -4.44, -2.23 -3.91, -1.84 -3.06 C-1.46 -2.21, -0.31 -0.51, 0 0" stroke="#000000" stroke-width="1" fill="none"></path></g></g><g stroke-linecap="round"><g transform="translate(261.08808114493195 289.77095127191717) rotate(61.296384782494115 5.557131813501826 -1.3181510793618259)" fill-rule="evenodd"><path d="M0 0 L3.01 3.46 L7.33 6.51 L9.73 5.91 L11.69 4.33 L12.64 2.21 L12.41 -0.47 L10.16 -3.92 L7.33 -7.03 L3.46 -9.16 L-0.01 -7.31 L-1.62 -3.87 L0 0" stroke="none" stroke-width="0" fill="#ffffff" fill-rule="evenodd"></path><path d="M0 0 C0.5 0.58, 1.79 2.38, 3.01 3.46 C4.23 4.55, 5.88 6.36, 7.33 6.51 C8.77 6.65, 10.84 5.5, 11.69 4.33 C12.53 3.17, 13.14 1.42, 12.41 -0.47 C11.68 -2.36, 8.82 -5.58, 7.33 -7.03 C5.83 -8.47, 4.68 -9.11, 3.46 -9.16 C2.23 -9.2, 0.84 -8.19, -0.01 -7.31 C-0.85 -6.43, -1.62 -5.08, -1.62 -3.87 C-1.62 -2.65, -0.27 -0.64, 0 0 M0 0 C0.5 0.58, 1.79 2.38, 3.01 3.46 C4.23 4.55, 5.88 6.36, 7.33 6.51 C8.77 6.65, 10.84 5.5, 11.69 4.33 C12.53 3.17, 13.14 1.42, 12.41 -0.47 C11.68 -2.36, 8.82 -5.58, 7.33 -7.03 C5.83 -8.47, 4.68 -9.11, 3.46 -9.16 C2.23 -9.2, 0.84 -8.19, -0.01 -7.31 C-0.85 -6.43, -1.62 -5.08, -1.62 -3.87 C-1.62 -2.65, -0.27 -0.64, 0 0" stroke="#000000" stroke-width="1" fill="none"></path></g></g><g stroke-linecap="round"><g transform="translate(268.57920554008547 85.44812295482535) rotate(356.57434765220694 2.9465690841624337 -8.80205589600686)" fill-rule="evenodd"><path d="M0 0 L-3.58 -4.58 L-5.92 -9.85 L-4.23 -15.04 L-1.35 -16.93 L2.12 -17.54 L8.59 -12.47 L11.82 -7.81 L0 0" stroke="none" stroke-width="0" fill="#bccfde" fill-rule="evenodd"></path><path d="M0 0 C-0.6 -0.76, -2.59 -2.94, -3.58 -4.58 C-4.57 -6.22, -5.81 -8.11, -5.92 -9.85 C-6.03 -11.6, -5.57 -13.76, -4.23 -15.04 C-2.89 -16.32, -0.02 -17.96, 2.12 -17.54 C4.26 -17.11, 7.04 -14.07, 8.59 -12.47 C10.15 -10.88, 11.11 -8.83, 11.43 -7.97 C11.76 -7.11, 12.45 -8.63, 10.54 -7.3 C8.64 -5.98, 1.76 -1.22, 0 0 M0 0 C-0.6 -0.76, -2.59 -2.94, -3.58 -4.58 C-4.57 -6.22, -5.81 -8.11, -5.92 -9.85 C-6.03 -11.6, -5.57 -13.76, -4.23 -15.04 C-2.89 -16.32, -0.02 -17.96, 2.12 -17.54 C4.26 -17.11, 7.04 -14.07, 8.59 -12.47 C10.15 -10.88, 11.11 -8.83, 11.43 -7.97 C11.76 -7.11, 12.45 -8.63, 10.54 -7.3 C8.64 -5.98, 1.76 -1.22, 0 0" stroke="#bccfde" stroke-width="1" fill="none"></path></g></g><g stroke-linecap="round"><g transform="translate(273.22826355567497 81.57374317908045) rotate(343.0962830115082 -2.001728754162741 -3.3496571380764557)"><path d="M0 0 C-0.31 -0.53, -1.22 -2.06, -1.89 -3.18 C-2.55 -4.3, -3.65 -6.11, -4 -6.7 M0 0 C-0.31 -0.53, -1.22 -2.06, -1.89 -3.18 C-2.55 -4.3, -3.65 -6.11, -4 -6.7" stroke="#000000" stroke-width="1" fill="none"></path></g></g><g stroke-linecap="round"><g transform="translate(268.6122841985524 85.42711958269712) rotate(356.57434765220694 2.9183782331662655 -8.80205589600686)"><path d="M0 0 C-0.6 -0.76, -2.59 -2.94, -3.58 -4.58 C-4.57 -6.22, -5.81 -8.11, -5.92 -9.85 C-6.03 -11.6, -5.57 -13.76, -4.23 -15.04 C-2.89 -16.32, -0.02 -17.96, 2.12 -17.54 C4.26 -17.11, 6.99 -14.12, 8.59 -12.47 C10.2 -10.83, 11.24 -8.46, 11.77 -7.65 M0 0 C-0.6 -0.76, -2.59 -2.94, -3.58 -4.58 C-4.57 -6.22, -5.81 -8.11, -5.92 -9.85 C-6.03 -11.6, -5.57 -13.76, -4.23 -15.04 C-2.89 -16.32, -0.02 -17.96, 2.12 -17.54 C4.26 -17.11, 6.99 -14.12, 8.59 -12.47 C10.2 -10.83, 11.24 -8.46, 11.77 -7.65" stroke="#000000" stroke-width="1" fill="none"></path></g></g><g stroke-linecap="round"><g transform="translate(273.2151550754995 80.82091194144829) rotate(343.0962830115082 0.19406822713153815 -3.272323311927657)"><path d="M0 0 C-0.02 -0.66, -0.24 -2.86, -0.15 -3.95 C-0.06 -5.04, 0.44 -6.11, 0.56 -6.54 M0 0 C-0.02 -0.66, -0.24 -2.86, -0.15 -3.95 C-0.06 -5.04, 0.44 -6.11, 0.56 -6.54" stroke="#000000" stroke-width="1" fill="none"></path></g></g><g stroke-linecap="round"><g transform="translate(273.2488541350675 81.71322837179667) rotate(343.0962830115082 -2.001728754162741 -3.3496571380764557)"><path d="M0 0 C-0.31 -0.53, -1.22 -2.06, -1.89 -3.18 C-2.55 -4.3, -3.65 -6.11, -4 -6.7 M0 0 C-0.31 -0.53, -1.22 -2.06, -1.89 -3.18 C-2.55 -4.3, -3.65 -6.11, -4 -6.7" stroke="#000000" stroke-width="1" fill="none"></path></g></g><g stroke-linecap="round"><g transform="translate(273.23574565489207 80.96039713416366) rotate(343.0962830115082 0.19406822713153815 -3.272323311927657)"><path d="M0 0 C-0.02 -0.66, -0.24 -2.86, -0.15 -3.95 C-0.06 -5.04, 0.44 -6.11, 0.56 -6.54 M0 0 C-0.02 -0.66, -0.24 -2.86, -0.15 -3.95 C-0.06 -5.04, 0.44 -6.11, 0.56 -6.54" stroke="#000000" stroke-width="1" fill="none"></path></g></g><g stroke-linecap="round"><g transform="translate(402.2195222015554 221.89056622691027) rotate(0 -73.1228268319843 -40.67843184144377)" fill-rule="evenodd"><path d="M0 0 L-2.25 23.19 L-3.99 31.15 L-9.21 43.77 L-17.15 54.49 L-28.68 63.5 L-42.86 70.45 L-59.33 75.13 L-77.21 77.24 L-96.33 76.28 L-114.2 72.62 L-128.14 67.38 L-133.85 63.49 L-138.54 57.92 L-142.1 50.76 L-144.62 42.25 L-147.22 19.65 L-147.19 3.7 L-141.32 -92.61 L-142.46 -119.51 L-141.04 -127.17 L-133.36 -140.35 L-120.78 -150.25 L-112.13 -153.69 L-101.89 -156.2 L-81.29 -158.59 L-63.4 -157.29 L-47.37 -153.16 L-33.87 -147.08 L-22.7 -138.93 L-14.08 -129.53 L-7.52 -117.01 L-2.43 -100.84 L-0.58 -90.63 L0.68 -77.7 L1.12 -59.15 L0 0" stroke="none" stroke-width="0" fill="#fa5252" fill-rule="evenodd"></path><path d="M0 0 C-0.66 5.19, -1.13 22.07, -3.99 31.15 C-6.84 40.23, -10.67 47.94, -17.15 54.49 C-23.62 61.04, -32.85 66.66, -42.86 70.45 C-52.87 74.24, -65.32 76.88, -77.21 77.24 C-89.1 77.61, -103.98 75.84, -114.2 72.62 C-124.43 69.4, -133.04 66.75, -138.54 57.92 C-144.04 49.09, -146.35 37.71, -147.22 19.65 C-148.09 1.58, -144.75 -31.75, -143.77 -50.45 C-142.78 -69.16, -141.78 -79.82, -141.32 -92.61 C-140.87 -105.39, -144.46 -117.56, -141.04 -127.17 C-137.61 -136.77, -130.74 -145.01, -120.78 -150.25 C-110.82 -155.49, -93.52 -158.1, -81.29 -158.59 C-69.05 -159.08, -57.13 -156.44, -47.37 -153.16 C-37.61 -149.89, -29.35 -144.95, -22.7 -138.93 C-16.06 -132.9, -11.42 -127.21, -7.52 -117.01 C-3.62 -106.8, -0.57 -97.2, 0.68 -77.7 C1.94 -58.2, 0.11 -12.95, 0 0 M0 0 C-0.66 5.19, -1.13 22.07, -3.99 31.15 C-6.84 40.23, -10.67 47.94, -17.15 54.49 C-23.62 61.04, -32.85 66.66, -42.86 70.45 C-52.87 74.24, -65.32 76.88, -77.21 77.24 C-89.1 77.61, -103.98 75.84, -114.2 72.62 C-124.43 69.4, -133.04 66.75, -138.54 57.92 C-144.04 49.09, -146.35 37.71, -147.22 19.65 C-148.09 1.58, -144.75 -31.75, -143.77 -50.45 C-142.78 -69.16, -141.78 -79.82, -141.32 -92.61 C-140.87 -105.39, -144.46 -117.56, -141.04 -127.17 C-137.61 -136.77, -130.74 -145.01, -120.78 -150.25 C-110.82 -155.49, -93.52 -158.1, -81.29 -158.59 C-69.05 -159.08, -57.13 -156.44, -47.37 -153.16 C-37.61 -149.89, -29.35 -144.95, -22.7 -138.93 C-16.06 -132.9, -11.42 -127.21, -7.52 -117.01 C-3.62 -106.8, -0.57 -97.2, 0.68 -77.7 C1.94 -58.2, 0.11 -12.95, 0 0" stroke="#000000" stroke-width="1" fill="none"></path></g></g><g stroke-linecap="round"><g stroke-opacity="0.6" fill-opacity="0.6" transform="translate(317.88936741061855 296.9688621687468) rotate(0 -20.09306202496805 -40.82312754583734)" fill-rule="evenodd"><path d="M0.7 1.62 L-20.56 -1.16 L-32.3 -4.76 L-41.41 -9.39 L-49.08 -16.01 L-56.26 -22.18 L-58.27 -30.2 L-61.9 -52.13 L-59.46 -66.66 L-53.15 -75 L-45.66 -78.41 L-35.82 -82.28 L-26.54 -83.36 L-17.22 -83.76 L-7.18 -79.51 L9.35 -62.21 L18.83 -43.77 L19.33 -36.35 L19.1 -15.71 L15.93 -13.15 L0.84 -1.79" stroke="none" stroke-width="0" fill="#ffffff" fill-rule="evenodd"></path><path d="M-1.04 0.54 C-4.43 0.38, -12.68 1.29, -19.43 0.1 C-26.19 -1.1, -35.56 -2.97, -41.57 -6.62 C-47.57 -10.28, -52.18 -15.92, -55.46 -21.82 C-58.74 -27.73, -61.57 -33.59, -61.23 -42.05 C-60.89 -50.52, -60.98 -65.99, -53.42 -72.61 C-45.86 -79.23, -27.04 -84.91, -15.85 -81.79 C-4.66 -78.67, 7.41 -64.51, 13.71 -53.9 C20.01 -43.28, 24.15 -27.17, 21.96 -18.11 C19.76 -9.05, 4.32 -2.65, 0.54 0.46 M0.61 -0.23 C-2.95 0.35, -12.9 3.02, -19.99 1.66 C-27.09 0.3, -36.16 -4.69, -41.96 -8.39 C-47.76 -12.09, -51.33 -14.49, -54.78 -20.56 C-58.24 -26.63, -62.6 -36.03, -62.7 -44.82 C-62.79 -53.61, -63.29 -66.96, -55.34 -73.3 C-47.38 -79.64, -26.83 -86.03, -14.98 -82.84 C-3.14 -79.65, 9.76 -65.26, 15.74 -54.15 C21.71 -43.04, 23.23 -25.23, 20.87 -16.17 C18.51 -7.1, 5.2 -2.15, 1.6 0.25" stroke="#000000" stroke-width="1" fill="none"></path></g></g><g stroke-linecap="round"><g transform="translate(383.3314979562912 84.08946740536072) rotate(422.26923488609646 -8.797463243616392 -0.7620381636917912)" fill-rule="evenodd"><path d="M0 0 L-12.07 8.08 L-15.24 3.38 L-17.58 -1.89 L-15.89 -7.08 L-13.02 -8.97 L-9.54 -9.57 L-3.07 -4.51 L0 0" stroke="none" stroke-width="0" fill="#bccfde" fill-rule="evenodd"></path><path d="M0 0 C-1.75 1.16, -8.37 5.67, -10.48 6.97 C-12.59 8.26, -11.87 8.37, -12.67 7.77 C-13.46 7.17, -14.42 4.99, -15.24 3.38 C-16.06 1.77, -17.47 -0.15, -17.58 -1.89 C-17.69 -3.64, -17.23 -5.8, -15.89 -7.08 C-14.55 -8.36, -11.68 -10, -9.54 -9.57 C-7.4 -9.15, -4.66 -6.11, -3.07 -4.51 C-1.48 -2.92, -0.51 -0.75, 0 0 M0 0 C-1.75 1.16, -8.37 5.67, -10.48 6.97 C-12.59 8.26, -11.87 8.37, -12.67 7.77 C-13.46 7.17, -14.42 4.99, -15.24 3.38 C-16.06 1.77, -17.47 -0.15, -17.58 -1.89 C-17.69 -3.64, -17.23 -5.8, -15.89 -7.08 C-14.55 -8.36, -11.68 -10, -9.54 -9.57 C-7.4 -9.15, -4.66 -6.11, -3.07 -4.51 C-1.48 -2.92, -0.51 -0.75, 0 0" stroke="#bccfde" stroke-width="1" fill="none"></path></g></g><g stroke-linecap="round"><g transform="translate(374.25646836203225 86.32848117065112) rotate(408.7911702453978 -2.4031289341986053 -2.1361146081765163)"><path d="M0 0 C-0.19 -0.46, -0.36 -2.05, -1.16 -2.76 C-1.96 -3.47, -4.2 -4.02, -4.81 -4.27 M0 0 C-0.19 -0.46, -0.36 -2.05, -1.16 -2.76 C-1.96 -3.47, -4.2 -4.02, -4.81 -4.27" stroke="#000000" stroke-width="1" fill="none"></path></g></g><g stroke-linecap="round"><g transform="translate(374.94475085143483 88.56703070813802) rotate(408.7911702453978 -0.22571836885413177 -3.8715827678160615)"><path d="M0 0 C-0.07 -0.55, -0.4 -2, -0.44 -3.29 C-0.49 -4.58, -0.3 -7, -0.27 -7.74 M0 0 C-0.07 -0.55, -0.4 -2, -0.44 -3.29 C-0.49 -4.58, -0.3 -7, -0.27 -7.74" stroke="#000000" stroke-width="1" fill="none"></path></g></g><g stroke-linecap="round"><g transform="translate(370.837326779602 92.39824544808528) rotate(422.26923488609646 3.762192443717595 -8.997500222820548)"><path d="M0 0 C-0.48 -0.78, -2.03 -2.99, -2.89 -4.7 C-3.75 -6.4, -5.05 -8.44, -5.15 -10.23 C-5.24 -12.02, -4.8 -14.13, -3.46 -15.41 C-2.12 -16.69, 0.65 -18.39, 2.89 -17.91 C5.14 -17.43, 8.38 -14.11, 10.02 -12.51 C11.65 -10.91, 12.24 -9, 12.68 -8.3 M0 0 C-0.48 -0.78, -2.03 -2.99, -2.89 -4.7 C-3.75 -6.4, -5.05 -8.44, -5.15 -10.23 C-5.24 -12.02, -4.8 -14.13, -3.46 -15.41 C-2.12 -16.69, 0.65 -18.39, 2.89 -17.91 C5.14 -17.43, 8.38 -14.11, 10.02 -12.51 C11.65 -10.91, 12.24 -9, 12.68 -8.3" stroke="#000000" stroke-width="1" fill="none"></path></g></g><g stroke-linecap="round"><g transform="translate(284.0853751219455 165.54266864246472) rotate(359.02968387063 11.586032673687725 -3.6599913790570184)" fill-rule="evenodd"><path d="M0 0 L0.44 -4.03 L4.57 -8.76 L11.8 -9.94 L17.88 -9.28 L22.24 -5.84 L23.08 -1.53 L20.26 1.8 L1.61 2.39 L0.07 0.3" stroke="none" stroke-width="0" fill="#ccbdac" fill-rule="evenodd"></path><path d="M0 0 C0.07 -0.67, -0.32 -2.57, 0.44 -4.03 C1.2 -5.49, 2.68 -7.78, 4.57 -8.76 C6.46 -9.75, 9.59 -9.86, 11.8 -9.94 C14.02 -10.03, 16.14 -9.96, 17.88 -9.28 C19.62 -8.6, 21.37 -7.13, 22.24 -5.84 C23.11 -4.55, 23.41 -2.8, 23.08 -1.53 C22.75 -0.25, 22.02 1.27, 20.26 1.8 C18.5 2.33, 14.91 1.52, 12.51 1.64 C10.11 1.77, 7.67 2.42, 5.86 2.54 C4.04 2.67, 2.57 2.76, 1.61 2.39 C0.64 2.01, 0.32 0.65, 0.07 0.3 M0 0 C0.07 -0.67, -0.32 -2.57, 0.44 -4.03 C1.2 -5.49, 2.68 -7.78, 4.57 -8.76 C6.46 -9.75, 9.59 -9.86, 11.8 -9.94 C14.02 -10.03, 16.14 -9.96, 17.88 -9.28 C19.62 -8.6, 21.37 -7.13, 22.24 -5.84 C23.11 -4.55, 23.41 -2.8, 23.08 -1.53 C22.75 -0.25, 22.02 1.27, 20.26 1.8 C18.5 2.33, 14.91 1.52, 12.51 1.64 C10.11 1.77, 7.67 2.42, 5.86 2.54 C4.04 2.67, 2.57 2.76, 1.61 2.39 C0.64 2.01, 0.32 0.65, 0.07 0.3" stroke="#000000" stroke-width="1" fill="none"></path></g></g><g stroke-linecap="round"><g transform="translate(295.96384491631727 167.65008798190559) rotate(359.02968387063 -4.928586224049923 -5.126671390792964)" fill-rule="evenodd"><path d="M0 0 L-3.13 -1.73 L-3.24 -4.18 L1.18 -7.09 L-0.36 -9.04 L-2.77 -10.71 L-6.96 -10.06 L-9.41 -7.99 L-11.05 -3.86 L-10.68 -1.14 L-7.02 0.63 L0 0" stroke="none" stroke-width="0" fill="#958b7f" fill-rule="evenodd"></path><path d="M0 0 C-0.21 -0.08, -0.74 -0.22, -1.26 -0.51 C-1.78 -0.79, -2.8 -1.12, -3.13 -1.73 C-3.46 -2.34, -3.51 -3.54, -3.24 -4.18 C-2.96 -4.81, -2.24 -5.06, -1.5 -5.54 C-0.77 -6.03, 1.39 -6.22, 1.18 -7.09 C0.97 -7.95, -1.41 -10.22, -2.77 -10.71 C-4.13 -11.21, -5.85 -10.52, -6.96 -10.06 C-8.07 -9.61, -8.81 -8.64, -9.41 -7.99 C-10.02 -7.35, -10.33 -6.9, -10.61 -6.21 C-10.88 -5.52, -11.04 -4.7, -11.05 -3.86 C-11.06 -3.01, -11.03 -1.81, -10.68 -1.14 C-10.33 -0.48, -9.56 -0.14, -8.95 0.15 C-8.34 0.45, -7.89 0.67, -7.02 0.63 C-6.15 0.59, -4.9 0.02, -3.73 -0.08 C-2.56 -0.19, -0.62 -0.01, 0 0 M0 0 C-0.21 -0.08, -0.74 -0.22, -1.26 -0.51 C-1.78 -0.79, -2.8 -1.12, -3.13 -1.73 C-3.46 -2.34, -3.51 -3.54, -3.24 -4.18 C-2.96 -4.81, -2.24 -5.06, -1.5 -5.54 C-0.77 -6.03, 1.39 -6.22, 1.18 -7.09 C0.97 -7.95, -1.41 -10.22, -2.77 -10.71 C-4.13 -11.21, -5.85 -10.52, -6.96 -10.06 C-8.07 -9.61, -8.81 -8.64, -9.41 -7.99 C-10.02 -7.35, -10.33 -6.9, -10.61 -6.21 C-10.88 -5.52, -11.04 -4.7, -11.05 -3.86 C-11.06 -3.01, -11.03 -1.81, -10.68 -1.14 C-10.33 -0.48, -9.56 -0.14, -8.95 0.15 C-8.34 0.45, -7.89 0.67, -7.02 0.63 C-6.15 0.59, -4.9 0.02, -3.73 -0.08 C-2.56 -0.19, -0.62 -0.01, 0 0" stroke="#958b7f" stroke-width="1" fill="none"></path></g></g><g stroke-linecap="round"><g transform="translate(284.0134027792153 165.6081615139222) rotate(359.02968387063 11.484116323145884 -3.507971021634823)"><path d="M0 0 C0.02 -0.65, -0.62 -2.49, 0.12 -3.89 C0.86 -5.29, 2.54 -7.42, 4.44 -8.4 C6.33 -9.39, 9.3 -9.67, 11.49 -9.8 C13.68 -9.92, 15.8 -9.72, 17.56 -9.13 C19.33 -8.55, 21.14 -7.45, 22.08 -6.29 C23.01 -5.12, 23.3 -3.46, 23.18 -2.14 C23.05 -0.82, 22.06 0.91, 21.32 1.65 C20.58 2.4, 20.26 2.32, 18.74 2.33 C17.22 2.34, 14.51 1.62, 12.2 1.7 C9.89 1.78, 6.64 2.73, 4.87 2.8 C3.09 2.87, 2.37 2.63, 1.54 2.11 C0.71 1.59, 0.17 0.1, -0.1 -0.3 M0 0 C0.02 -0.65, -0.62 -2.49, 0.12 -3.89 C0.86 -5.29, 2.54 -7.42, 4.44 -8.4 C6.33 -9.39, 9.3 -9.67, 11.49 -9.8 C13.68 -9.92, 15.8 -9.72, 17.56 -9.13 C19.33 -8.55, 21.14 -7.45, 22.08 -6.29 C23.01 -5.12, 23.3 -3.46, 23.18 -2.14 C23.05 -0.82, 22.06 0.91, 21.32 1.65 C20.58 2.4, 20.26 2.32, 18.74 2.33 C17.22 2.34, 14.51 1.62, 12.2 1.7 C9.89 1.78, 6.64 2.73, 4.87 2.8 C3.09 2.87, 2.37 2.63, 1.54 2.11 C0.71 1.59, 0.17 0.1, -0.1 -0.3" stroke="#000000" stroke-width="1" fill="none"></path></g></g><g stroke-linecap="round"><g transform="translate(286.9602041659874 154.719202812608) rotate(359.02968387063 8.155632186956552 -0.042205032963401834)" fill-rule="evenodd"><path d="M0 0 L0.19 -2.44 L3.03 -4.34 L13 -4.92 L16.25 -2.86 L15.66 0.86 L13.94 3 L8.43 5.06 L3.76 3.77 L0.89 1.85 L0 0" stroke="none" stroke-width="0" fill="#595755" fill-rule="evenodd"></path><path d="M0 0 C0.03 -0.41, -0.32 -1.72, 0.19 -2.44 C0.7 -3.17, 1.72 -3.91, 3.03 -4.34 C4.35 -4.78, 6.43 -4.95, 8.09 -5.05 C9.75 -5.14, 11.64 -5.28, 13 -4.92 C14.36 -4.55, 15.81 -3.82, 16.25 -2.86 C16.69 -1.89, 16.05 -0.11, 15.66 0.86 C15.28 1.84, 14.62 2.42, 13.94 3 C13.26 3.58, 12.5 4, 11.58 4.34 C10.66 4.68, 9.73 5.15, 8.43 5.06 C7.13 4.96, 5.01 4.31, 3.76 3.77 C2.5 3.24, 1.52 2.48, 0.89 1.85 C0.26 1.22, 0.15 0.31, 0 0 M0 0 C0.03 -0.41, -0.32 -1.72, 0.19 -2.44 C0.7 -3.17, 1.72 -3.91, 3.03 -4.34 C4.35 -4.78, 6.43 -4.95, 8.09 -5.05 C9.75 -5.14, 11.64 -5.28, 13 -4.92 C14.36 -4.55, 15.81 -3.82, 16.25 -2.86 C16.69 -1.89, 16.05 -0.11, 15.66 0.86 C15.28 1.84, 14.62 2.42, 13.94 3 C13.26 3.58, 12.5 4, 11.58 4.34 C10.66 4.68, 9.73 5.15, 8.43 5.06 C7.13 4.96, 5.01 4.31, 3.76 3.77 C2.5 3.24, 1.52 2.48, 0.89 1.85 C0.26 1.22, 0.15 0.31, 0 0" stroke="#000000" stroke-width="1" fill="none"></path></g></g><g stroke-linecap="round"><g transform="translate(299.122021434098 158.96951317943734) rotate(359.02968387063 -5.992382633070349 -4.326855149234696)" fill-rule="evenodd"><path d="M0 0 L-2.92 0.1 L-7.03 -3.22 L-7.22 -5.38 L-5.75 -7.53 L-3.06 -9.15 L-10.55 -7.79 L-11.74 -6.01 L-11.89 -3.72 L-7.6 -0.04 L-5.27 0.55 L0 0" stroke="none" stroke-width="0" fill="#454342" fill-rule="evenodd"></path><path d="M0 0 C-0.49 0.02, -2.03 0.31, -2.92 0.1 C-3.81 -0.11, -4.66 -0.71, -5.34 -1.27 C-6.03 -1.82, -6.72 -2.53, -7.03 -3.22 C-7.35 -3.91, -7.43 -4.66, -7.22 -5.38 C-7 -6.1, -6.44 -6.91, -5.75 -7.53 C-5.05 -8.16, -2.71 -8.96, -3.06 -9.15 C-3.42 -9.35, -6.62 -8.92, -7.87 -8.69 C-9.11 -8.47, -9.9 -8.24, -10.55 -7.79 C-11.19 -7.34, -11.51 -6.68, -11.74 -6.01 C-11.96 -5.33, -12.08 -4.36, -11.89 -3.72 C-11.7 -3.09, -11.03 -2.66, -10.59 -2.2 C-10.14 -1.74, -9.72 -1.32, -9.22 -0.96 C-8.72 -0.6, -8.26 -0.29, -7.6 -0.04 C-6.94 0.21, -6.54 0.54, -5.27 0.55 C-4 0.55, -0.88 0.09, 0 0 M0 0 C-0.49 0.02, -2.03 0.31, -2.92 0.1 C-3.81 -0.11, -4.66 -0.71, -5.34 -1.27 C-6.03 -1.82, -6.72 -2.53, -7.03 -3.22 C-7.35 -3.91, -7.43 -4.66, -7.22 -5.38 C-7 -6.1, -6.44 -6.91, -5.75 -7.53 C-5.05 -8.16, -2.71 -8.96, -3.06 -9.15 C-3.42 -9.35, -6.62 -8.92, -7.87 -8.69 C-9.11 -8.47, -9.9 -8.24, -10.55 -7.79 C-11.19 -7.34, -11.51 -6.68, -11.74 -6.01 C-11.96 -5.33, -12.08 -4.36, -11.89 -3.72 C-11.7 -3.09, -11.03 -2.66, -10.59 -2.2 C-10.14 -1.74, -9.72 -1.32, -9.22 -0.96 C-8.72 -0.6, -8.26 -0.29, -7.6 -0.04 C-6.94 0.21, -6.54 0.54, -5.27 0.55 C-4 0.55, -0.88 0.09, 0 0" stroke="#454342" stroke-width="1" fill="none"></path></g></g><g stroke-linecap="round"><g transform="translate(286.7093384150595 154.65987938438184) rotate(359.02968387063 8.285294230415559 0.15888687761183462)"><path d="M0 0 C0.03 -0.41, -0.31 -1.72, 0.18 -2.44 C0.67 -3.17, 1.66 -3.91, 2.93 -4.34 C4.21 -4.78, 6.67 -4.93, 7.82 -5.05 C8.97 -5.16, 9.12 -5.02, 9.82 -5.02 C10.51 -5.02, 11.19 -5.13, 11.98 -5.05 C12.77 -4.97, 13.79 -4.95, 14.55 -4.56 C15.31 -4.16, 16.28 -3.45, 16.56 -2.7 C16.84 -1.94, 16.43 -0.82, 16.22 -0.02 C16.01 0.78, 15.96 1.34, 15.29 2.09 C14.61 2.83, 13.33 3.91, 12.18 4.46 C11.04 5.02, 9.86 5.49, 8.43 5.4 C7 5.31, 4.84 4.55, 3.61 3.94 C2.38 3.33, 1.66 2.41, 1.06 1.76 C0.46 1.1, 0.18 0.29, 0 0 M0 0 C0.03 -0.41, -0.31 -1.72, 0.18 -2.44 C0.67 -3.17, 1.66 -3.91, 2.93 -4.34 C4.21 -4.78, 6.67 -4.93, 7.82 -5.05 C8.97 -5.16, 9.12 -5.02, 9.82 -5.02 C10.51 -5.02, 11.19 -5.13, 11.98 -5.05 C12.77 -4.97, 13.79 -4.95, 14.55 -4.56 C15.31 -4.16, 16.28 -3.45, 16.56 -2.7 C16.84 -1.94, 16.43 -0.82, 16.22 -0.02 C16.01 0.78, 15.96 1.34, 15.29 2.09 C14.61 2.83, 13.33 3.91, 12.18 4.46 C11.04 5.02, 9.86 5.49, 8.43 5.4 C7 5.31, 4.84 4.55, 3.61 3.94 C2.38 3.33, 1.66 2.41, 1.06 1.76 C0.46 1.1, 0.18 0.29, 0 0" stroke="#000000" stroke-width="1" fill="none"></path></g></g><g stroke-linecap="round"><g transform="translate(298.51437940398466 152.17545703001912) rotate(359.02968387063 0.7662972468768885 1.4078808823375297)" fill-rule="evenodd"><path d="" stroke="none" stroke-width="0" fill="#454342" fill-rule="evenodd"></path><path d="M0 0 C0.25 0.21, 1.34 0.79, 1.51 1.26 C1.67 1.73, 1.06 2.56, 0.97 2.82 M0 0 C0.25 0.21, 1.34 0.79, 1.51 1.26 C1.67 1.73, 1.06 2.56, 0.97 2.82" stroke="#000000" stroke-width="1" fill="none"></path></g></g><g stroke-linecap="round"><g transform="translate(289.2477128931904 168.61809427295003) rotate(359.9298638803776 0.0525783781457676 2.313448638413)"><path d="M0 0 C0.02 0.77, 0.09 3.86, 0.11 4.63 M0 0 C0.02 0.77, 0.09 3.86, 0.11 4.63" stroke="#000000" stroke-width="1" fill="none"></path></g></g><g stroke-linecap="round"><g transform="translate(289.19146919459513 172.58901123867014) rotate(359.9298638803776 5.568396059388931 -0.9059818415364163)" fill-rule="evenodd"><path d="M0 0 L0.9 2.86 L8.1 3.12 L11.01 1.73 L11.23 -4.75 L5.29 -4.96 L-0.05 -3.87 L0 0" stroke="none" stroke-width="0" fill="#ffffff" fill-rule="evenodd"></path><path d="M0 0 C0.15 0.48, 0.17 2.29, 0.9 2.86 C1.63 3.43, 3.19 3.39, 4.39 3.43 C5.59 3.47, 7 3.4, 8.1 3.12 C9.2 2.84, 10.43 2.51, 11.01 1.73 C11.58 0.96, 11.51 -0.43, 11.55 -1.51 C11.58 -2.59, 11.61 -4.13, 11.23 -4.75 C10.84 -5.37, 10.22 -5.21, 9.23 -5.25 C8.24 -5.28, 6.83 -5.19, 5.29 -4.96 C3.74 -4.73, 0.83 -4.7, -0.05 -3.87 C-0.93 -3.05, -0.01 -0.65, 0 0 M0 0 C0.15 0.48, 0.17 2.29, 0.9 2.86 C1.63 3.43, 3.19 3.39, 4.39 3.43 C5.59 3.47, 7 3.4, 8.1 3.12 C9.2 2.84, 10.43 2.51, 11.01 1.73 C11.58 0.96, 11.51 -0.43, 11.55 -1.51 C11.58 -2.59, 11.61 -4.13, 11.23 -4.75 C10.84 -5.37, 10.22 -5.21, 9.23 -5.25 C8.24 -5.28, 6.83 -5.19, 5.29 -4.96 C3.74 -4.73, 0.83 -4.7, -0.05 -3.87 C-0.93 -3.05, -0.01 -0.65, 0 0" stroke="#000000" stroke-width="1" fill="none"></path></g></g><g stroke-linecap="round"><g transform="translate(294.5229915704301 167.77117342374714) rotate(359.9298638803776 0.04113724885036163 3.9433783609312343)" fill-rule="evenodd"><path d="" stroke="none" stroke-width="0" fill="#ffffff" fill-rule="evenodd"></path><path d="M0 0 C-0.02 0.59, -0.16 2.22, -0.12 3.53 C-0.09 4.85, 0.15 7.16, 0.21 7.89 M0 0 C-0.02 0.59, -0.16 2.22, -0.12 3.53 C-0.09 4.85, 0.15 7.16, 0.21 7.89" stroke="#000000" stroke-width="1" fill="none"></path></g></g><g stroke-linecap="round" transform="translate(240.19711826237688 100.74826179369717) rotate(0 27.797388932094293 20.91115470875777)"><path d="M20.93 -0.18 C26.47 -1.58, 34.72 0.82, 40.11 2.78 C45.51 4.74, 50.95 7.58, 53.3 11.59 C55.66 15.6, 55.86 22.3, 54.23 26.83 C52.6 31.36, 48.15 36.21, 43.5 38.76 C38.85 41.32, 32.33 42.52, 26.34 42.16 C20.34 41.8, 11.79 39.8, 7.52 36.6 C3.26 33.41, 1.32 27.42, 0.76 22.97 C0.19 18.52, -0.4 13.75, 4.12 9.89 C8.63 6.02, 22.43 1.24, 27.87 -0.22 C33.31 -1.68, 36.68 0.68, 36.77 1.13 M34.15 1.59 C40.07 1.95, 46.74 4.22, 50.45 7.68 C54.16 11.14, 56.88 17.81, 56.43 22.33 C55.97 26.84, 51.88 31.82, 47.73 34.8 C43.59 37.78, 37.41 39.61, 31.55 40.2 C25.68 40.78, 17.68 40.34, 12.54 38.32 C7.41 36.3, 2.68 32.5, 0.76 28.09 C-1.15 23.68, -1.5 16.39, 1.05 11.87 C3.59 7.35, 10.57 3.04, 16.03 0.97 C21.49 -1.09, 31.14 -0.3, 33.81 -0.51 C36.48 -0.72, 31.98 -0.95, 32.05 -0.26" stroke="none" stroke-width="0" fill="#ffffff"></path><path d="M19.97 1.22 C25.33 -0.08, 34.38 1.05, 39.85 2.75 C45.32 4.45, 50.36 7.66, 52.77 11.43 C55.18 15.2, 55.74 21.08, 54.31 25.37 C52.89 29.67, 48.93 34.61, 44.22 37.18 C39.51 39.76, 32.06 41.04, 26.06 40.79 C20.05 40.55, 12.36 38.59, 8.19 35.7 C4.01 32.81, 1.62 28.06, 1.01 23.46 C0.41 18.86, 0.25 11.97, 4.56 8.09 C8.87 4.2, 21.85 1.48, 26.88 0.16 C31.91 -1.17, 34.53 -0.14, 34.71 0.14 M33.47 -0.26 C39.01 0.47, 45.15 4.53, 48.66 8.23 C52.16 11.92, 54.51 17.45, 54.52 21.91 C54.54 26.36, 52.39 31.9, 48.73 34.97 C45.08 38.03, 38.72 39.9, 32.62 40.29 C26.51 40.69, 17.11 39.63, 12.12 37.34 C7.13 35.05, 4.59 30.49, 2.68 26.55 C0.77 22.61, -1.11 17.56, 0.68 13.7 C2.47 9.84, 7.73 5.52, 13.42 3.38 C19.1 1.24, 31.29 1.17, 34.77 0.86 C38.25 0.54, 34.34 1.12, 34.29 1.49" stroke="#000000" stroke-width="1" fill="none"></path></g><g stroke-linecap="round"><g stroke-opacity="0.1" fill-opacity="0.1" transform="translate(271.0139938655234 157.368281889507) rotate(0 -13.942306465179854 -35.06446585349026)" fill-rule="evenodd"><path d="M0 -15.41 L-11.71 -20.34 L-16.82 -23.92 L-20.71 -28.17 L-22.54 -33.3 L-22.66 -38.49 L-21.1 -42.93 L-18.01 -46.84 L-7.64 -52.86 L1.23 -55.09 L-14.17 -53.29 L-19.38 -50.62 L-27.59 -42.64 L-29.23 -36.13 L-27.86 -28.63 L-23.76 -22.12 L-17.46 -18.37 L-7.05 -15.22 L0 -15.41" stroke="none" stroke-width="0" fill="#000000" fill-rule="evenodd"></path><path d="M0 -15.41 C-1.95 -16.23, -8.25 -18.22, -11.71 -20.34 C-15.16 -22.47, -18.88 -25.15, -20.71 -28.17 C-22.54 -31.2, -23.11 -35.38, -22.66 -38.49 C-22.21 -41.6, -20.51 -44.44, -18.01 -46.84 C-15.5 -49.23, -10.85 -51.48, -7.64 -52.86 C-4.43 -54.23, 2.32 -55.02, 1.23 -55.09 C0.15 -55.16, -10.1 -54.54, -14.17 -53.29 C-18.24 -52.04, -20.97 -49.34, -23.21 -47.57 C-25.44 -45.79, -26.59 -44.54, -27.59 -42.64 C-28.59 -40.73, -29.19 -38.46, -29.23 -36.13 C-29.28 -33.79, -28.78 -30.96, -27.86 -28.63 C-26.95 -26.3, -25.49 -23.83, -23.76 -22.12 C-22.02 -20.41, -20.24 -19.52, -17.46 -18.37 C-14.67 -17.22, -9.96 -15.71, -7.05 -15.22 C-4.14 -14.72, -1.17 -15.37, 0 -15.41 M0 -15.41 C-1.95 -16.23, -8.25 -18.22, -11.71 -20.34 C-15.16 -22.47, -18.88 -25.15, -20.71 -28.17 C-22.54 -31.2, -23.11 -35.38, -22.66 -38.49 C-22.21 -41.6, -20.51 -44.44, -18.01 -46.84 C-15.5 -49.23, -10.85 -51.48, -7.64 -52.86 C-4.43 -54.23, 2.32 -55.02, 1.23 -55.09 C0.15 -55.16, -10.1 -54.54, -14.17 -53.29 C-18.24 -52.04, -20.97 -49.34, -23.21 -47.57 C-25.44 -45.79, -26.59 -44.54, -27.59 -42.64 C-28.59 -40.73, -29.19 -38.46, -29.23 -36.13 C-29.28 -33.79, -28.78 -30.96, -27.86 -28.63 C-26.95 -26.3, -25.49 -23.83, -23.76 -22.12 C-22.02 -20.41, -20.24 -19.52, -17.46 -18.37 C-14.67 -17.22, -9.96 -15.71, -7.05 -15.22 C-4.14 -14.72, -1.17 -15.37, 0 -15.41" stroke="#000000" stroke-width="1" fill="none"></path></g></g><g stroke-linecap="round" transform="translate(240.41200241205172 100.91189751153985) rotate(0 27.797388932094293 20.721894774998887)"><path d="M33.48 1.19 C39.17 1.56, 45.59 3.93, 49.22 7.09 C52.85 10.26, 55.25 15.79, 55.24 20.19 C55.24 24.59, 52.94 30.16, 49.19 33.5 C45.44 36.84, 38.71 39.42, 32.75 40.24 C26.8 41.07, 18.52 40.46, 13.47 38.45 C8.41 36.43, 4.42 32.48, 2.41 28.14 C0.4 23.8, -0.48 16.65, 1.41 12.42 C3.31 8.18, 7.75 4.76, 13.76 2.74 C19.78 0.73, 32.98 0.36, 37.52 0.32 C42.06 0.29, 41.17 2.12, 41.01 2.52 M22.73 0.4 C28.12 -0.31, 36.06 1.04, 41.35 3.35 C46.64 5.66, 52.27 10.32, 54.48 14.27 C56.68 18.22, 56.99 23.16, 54.59 27.06 C52.18 30.96, 45.22 35.47, 40.04 37.66 C34.85 39.85, 29.38 40.77, 23.48 40.2 C17.58 39.62, 8.77 37.39, 4.64 34.19 C0.5 31, -1.93 25.52, -1.33 21.05 C-0.73 16.57, 3.9 10.7, 8.22 7.33 C12.54 3.97, 21.75 1.87, 24.61 0.84 C27.46 -0.18, 25.27 0.71, 25.35 1.19" stroke="#000000" stroke-width="1" fill="none"></path></g><g stroke-linecap="round" transform="translate(254.48750650594445 120.3530459811061) rotate(0 5.6142509665806415 5.340385065771805)"><path d="M8.48 0.8 C9.7 0.87, 9.68 1.34, 10.26 2.16 C10.83 2.98, 11.96 4.41, 11.93 5.72 C11.91 7.03, 11.1 9.33, 10.11 10.01 C9.12 10.69, 7.24 9.78, 6.01 9.79 C4.78 9.79, 3.7 10.75, 2.71 10.04 C1.71 9.34, 0.24 6.91, 0.03 5.57 C-0.17 4.24, 0.91 2.87, 1.48 2.03 C2.05 1.2, 2.35 0.77, 3.47 0.56 C4.59 0.34, 7.16 0.51, 8.21 0.75 C9.26 0.99, 9.9 1.76, 9.78 1.98 M6.23 0.94 C7.29 0.83, 9.77 0.51, 10.59 1.23 C11.4 1.95, 11.45 4.1, 11.1 5.28 C10.75 6.46, 9.28 7.51, 8.47 8.3 C7.66 9.09, 7.08 9.91, 6.25 10.02 C5.43 10.13, 4.71 9.23, 3.53 8.96 C2.34 8.69, -0.08 9.27, -0.85 8.39 C-1.62 7.51, -1.56 5.21, -1.11 3.68 C-0.66 2.16, 0.76 -0.35, 1.85 -0.75 C2.95 -1.15, 4.51 1.17, 5.48 1.28 C6.45 1.39, 7.48 0.19, 7.68 -0.11" stroke="none" stroke-width="0" fill="#000000"></path><path d="M4.81 0.03 C5.7 -0.47, 6.41 -0.47, 7.22 0.09 C8.04 0.65, 9.21 2.19, 9.71 3.37 C10.22 4.56, 10.53 6.16, 10.24 7.2 C9.96 8.24, 8.85 8.9, 8.02 9.63 C7.19 10.36, 6.2 11.72, 5.27 11.58 C4.34 11.44, 3.47 9.82, 2.46 8.79 C1.44 7.75, -0.59 6.37, -0.82 5.38 C-1.05 4.4, 0.22 3.68, 1.08 2.86 C1.93 2.05, 3.47 0.87, 4.31 0.49 C5.14 0.11, 6.01 0.61, 6.09 0.57 M5.58 -1.05 C6.88 -0.94, 8.38 0.37, 9.31 1.41 C10.24 2.44, 11.17 4.26, 11.16 5.17 C11.15 6.09, 10.04 5.82, 9.26 6.89 C8.47 7.96, 7.46 11.24, 6.43 11.61 C5.41 11.97, 3.91 9.87, 3.08 9.08 C2.26 8.29, 1.84 7.39, 1.49 6.85 C1.15 6.3, 0.87 6.57, 0.99 5.8 C1.12 5.02, 1.4 2.92, 2.24 2.21 C3.08 1.49, 5.4 1.69, 6.02 1.49 C6.64 1.3, 5.82 1.32, 5.96 1.02" stroke="#000000" stroke-width="1" fill="none"></path></g><g stroke-linecap="round" transform="translate(260.61943129368717 121.27544555217884) rotate(0 1.0954636032352596 1.3693295040440532)"><path d="M2.19 1.37 C2.19 1.45, 2.19 1.53, 2.17 1.61 C2.16 1.69, 2.15 1.76, 2.12 1.84 C2.1 1.91, 2.08 1.99, 2.04 2.05 C2.01 2.12, 1.98 2.19, 1.93 2.25 C1.89 2.31, 1.85 2.37, 1.8 2.42 C1.75 2.47, 1.7 2.52, 1.64 2.56 C1.59 2.59, 1.53 2.63, 1.47 2.66 C1.41 2.68, 1.35 2.7, 1.29 2.72 C1.22 2.73, 1.16 2.74, 1.1 2.74 C1.03 2.74, 0.97 2.73, 0.91 2.72 C0.84 2.7, 0.78 2.68, 0.72 2.66 C0.66 2.63, 0.6 2.59, 0.55 2.56 C0.49 2.52, 0.44 2.47, 0.39 2.42 C0.34 2.37, 0.3 2.31, 0.26 2.25 C0.22 2.19, 0.18 2.12, 0.15 2.05 C0.12 1.99, 0.09 1.91, 0.07 1.84 C0.04 1.76, 0.03 1.69, 0.02 1.61 C0.01 1.53, 0 1.45, 0 1.37 C0 1.29, 0.01 1.21, 0.02 1.13 C0.03 1.05, 0.04 0.98, 0.07 0.9 C0.09 0.83, 0.12 0.75, 0.15 0.68 C0.18 0.62, 0.22 0.55, 0.26 0.49 C0.3 0.43, 0.34 0.37, 0.39 0.32 C0.44 0.27, 0.49 0.22, 0.55 0.18 C0.6 0.14, 0.66 0.11, 0.72 0.08 C0.78 0.06, 0.84 0.03, 0.91 0.02 C0.97 0.01, 1.03 0, 1.1 0 C1.16 0, 1.22 0.01, 1.29 0.02 C1.35 0.03, 1.41 0.06, 1.47 0.08 C1.53 0.11, 1.59 0.14, 1.64 0.18 C1.7 0.22, 1.75 0.27, 1.8 0.32 C1.85 0.37, 1.89 0.43, 1.93 0.49 C1.98 0.55, 2.01 0.62, 2.04 0.68 C2.08 0.75, 2.1 0.83, 2.12 0.9 C2.15 0.98, 2.16 1.05, 2.17 1.13 C2.19 1.21, 2.19 1.33, 2.19 1.37 C2.19 1.41, 2.19 1.33, 2.19 1.37" stroke="none" stroke-width="0" fill="#ffffff"></path><path d="M2.19 1.37 C2.19 1.45, 2.19 1.53, 2.17 1.61 C2.16 1.69, 2.15 1.76, 2.12 1.84 C2.1 1.91, 2.08 1.99, 2.04 2.05 C2.01 2.12, 1.98 2.19, 1.93 2.25 C1.89 2.31, 1.85 2.37, 1.8 2.42 C1.75 2.47, 1.7 2.52, 1.64 2.56 C1.59 2.59, 1.53 2.63, 1.47 2.66 C1.41 2.68, 1.35 2.7, 1.29 2.72 C1.22 2.73, 1.16 2.74, 1.1 2.74 C1.03 2.74, 0.97 2.73, 0.91 2.72 C0.84 2.7, 0.78 2.68, 0.72 2.66 C0.66 2.63, 0.6 2.59, 0.55 2.56 C0.49 2.52, 0.44 2.47, 0.39 2.42 C0.34 2.37, 0.3 2.31, 0.26 2.25 C0.22 2.19, 0.18 2.12, 0.15 2.05 C0.12 1.99, 0.09 1.91, 0.07 1.84 C0.04 1.76, 0.03 1.69, 0.02 1.61 C0.01 1.53, 0 1.45, 0 1.37 C0 1.29, 0.01 1.21, 0.02 1.13 C0.03 1.05, 0.04 0.98, 0.07 0.9 C0.09 0.83, 0.12 0.75, 0.15 0.68 C0.18 0.62, 0.22 0.55, 0.26 0.49 C0.3 0.43, 0.34 0.37, 0.39 0.32 C0.44 0.27, 0.49 0.22, 0.55 0.18 C0.6 0.14, 0.66 0.11, 0.72 0.08 C0.78 0.06, 0.84 0.03, 0.91 0.02 C0.97 0.01, 1.03 0, 1.1 0 C1.16 0, 1.22 0.01, 1.29 0.02 C1.35 0.03, 1.41 0.06, 1.47 0.08 C1.53 0.11, 1.59 0.14, 1.64 0.18 C1.7 0.22, 1.75 0.27, 1.8 0.32 C1.85 0.37, 1.89 0.43, 1.93 0.49 C1.98 0.55, 2.01 0.62, 2.04 0.68 C2.08 0.75, 2.1 0.83, 2.12 0.9 C2.15 0.98, 2.16 1.05, 2.17 1.13 C2.19 1.21, 2.19 1.33, 2.19 1.37 C2.19 1.41, 2.19 1.33, 2.19 1.37" stroke="#ffffff" stroke-width="1" fill="none"></path></g><g stroke-linecap="round" transform="translate(303.81284217823816 97.41653383548555) rotate(0 31.75044246854833 24.765683696182037)"><path d="M45.61 2.05 C51.56 3.83, 58.7 9.23, 61.62 14.27 C64.53 19.31, 65.09 27.27, 63.11 32.3 C61.13 37.34, 55.45 41.53, 49.75 44.48 C44.06 47.43, 35.79 50.55, 28.96 49.99 C22.12 49.44, 13.43 45.22, 8.74 41.18 C4.04 37.13, 1.26 30.86, 0.79 25.72 C0.33 20.58, 2.1 14.51, 5.94 10.33 C9.79 6.15, 16.98 1.79, 23.87 0.65 C30.77 -0.5, 43.46 2.76, 47.3 3.44 C51.15 4.12, 47.18 4.32, 46.93 4.73 M39.97 0.02 C46.38 0.76, 53.56 5.74, 57.24 10.05 C60.91 14.37, 62.48 20.7, 62 25.91 C61.53 31.12, 58.71 37.57, 54.36 41.32 C50.02 45.06, 42.84 47.51, 35.93 48.39 C29.02 49.27, 18.94 49.35, 12.92 46.59 C6.9 43.84, 1.67 37.42, -0.2 31.87 C-2.06 26.33, -1.08 18.02, 1.72 13.33 C4.52 8.64, 10.14 5.89, 16.59 3.74 C23.03 1.59, 36.61 1.03, 40.4 0.42 C44.18 -0.19, 39.79 -0.59, 39.28 0.08" stroke="none" stroke-width="0" fill="#ffffff"></path><path d="M36.66 0.03 C42.81 0.7, 50.83 5.06, 55.16 9.29 C59.49 13.52, 62.67 20.17, 62.67 25.41 C62.66 30.64, 59.36 36.59, 55.12 40.7 C50.88 44.81, 43.66 49.21, 37.23 50.06 C30.81 50.9, 22.59 48.67, 16.56 45.77 C10.53 42.87, 3.47 37.49, 1.05 32.65 C-1.36 27.81, -0.25 21.55, 2.07 16.74 C4.4 11.93, 8.45 6.3, 15.02 3.79 C21.59 1.28, 36.45 1.85, 41.5 1.68 C46.56 1.52, 45.48 2.56, 45.34 2.8 M21.09 1.8 C27 0.1, 36.48 0.84, 42.61 2.44 C48.74 4.04, 54.7 6.75, 57.89 11.4 C61.08 16.05, 62.81 25.18, 61.73 30.34 C60.64 35.5, 56.27 39.39, 51.39 42.36 C46.51 45.33, 38.95 47.76, 32.44 48.19 C25.93 48.62, 17.59 47.99, 12.33 44.95 C7.07 41.9, 2.14 35.11, 0.89 29.94 C-0.36 24.76, 1.43 18.5, 4.85 13.91 C8.26 9.33, 18.45 4.55, 21.39 2.42 C24.33 0.29, 22.44 0.7, 22.48 1.15" stroke="#000000" stroke-width="1" fill="none"></path></g><g stroke-linecap="round"><g stroke-opacity="0.1" fill-opacity="0.1" transform="translate(351.22590858645765 158.51047689130314) rotate(0 -23.3577598588534 -36.16974786154844)" fill-rule="evenodd"><path d="M-1.74 -16.08 L-13.09 -16.05 L-20.41 -17.43 L-27.29 -20.01 L-32.68 -24.48 L-37.98 -31.41 L-37.62 -40.89 L-35.75 -45.9 L-32.5 -50.59 L-27.09 -54.53 L-21.1 -57.58 L-11.35 -60.18 L-28.28 -58.09 L-34.01 -54.99 L-38.22 -51.44 L-43.04 -45.71 L-45.64 -38.04 L-46.38 -29.94 L-44.41 -24.12 L-40.94 -20.06 L-34.67 -16 L-25.34 -13.04 L-13.79 -12.33 L-0.28 -15.98" stroke="none" stroke-width="0" fill="#000000" fill-rule="evenodd"></path><path d="M-1.74 -16.08 C-2.68 -15.99, -5.51 -15.57, -7.4 -15.57 C-9.29 -15.57, -10.93 -15.74, -13.09 -16.05 C-15.26 -16.36, -18.05 -16.77, -20.41 -17.43 C-22.78 -18.09, -25.25 -18.83, -27.29 -20.01 C-29.34 -21.18, -30.9 -22.58, -32.68 -24.48 C-34.46 -26.38, -37.16 -28.68, -37.98 -31.41 C-38.8 -34.15, -38.53 -37.7, -37.62 -40.89 C-36.7 -44.09, -35.25 -47.81, -32.5 -50.59 C-29.75 -53.37, -24.63 -55.99, -21.1 -57.58 C-17.58 -59.18, -10.15 -60.1, -11.35 -60.18 C-12.54 -60.27, -23.8 -59.54, -28.28 -58.09 C-32.76 -56.63, -35.76 -53.5, -38.22 -51.44 C-40.68 -49.38, -41.8 -47.94, -43.04 -45.71 C-44.27 -43.48, -45.08 -40.67, -45.64 -38.04 C-46.19 -35.41, -46.58 -32.26, -46.38 -29.94 C-46.17 -27.62, -45.32 -25.77, -44.41 -24.12 C-43.51 -22.48, -42.56 -21.41, -40.94 -20.06 C-39.31 -18.7, -37.27 -17.17, -34.67 -16 C-32.07 -14.83, -28.82 -13.65, -25.34 -13.04 C-21.86 -12.43, -17.97 -11.84, -13.79 -12.33 C-9.61 -12.82, -2.54 -15.37, -0.28 -15.98 M-1.74 -16.08 C-2.68 -15.99, -5.51 -15.57, -7.4 -15.57 C-9.29 -15.57, -10.93 -15.74, -13.09 -16.05 C-15.26 -16.36, -18.05 -16.77, -20.41 -17.43 C-22.78 -18.09, -25.25 -18.83, -27.29 -20.01 C-29.34 -21.18, -30.9 -22.58, -32.68 -24.48 C-34.46 -26.38, -37.16 -28.68, -37.98 -31.41 C-38.8 -34.15, -38.53 -37.7, -37.62 -40.89 C-36.7 -44.09, -35.25 -47.81, -32.5 -50.59 C-29.75 -53.37, -24.63 -55.99, -21.1 -57.58 C-17.58 -59.18, -10.15 -60.1, -11.35 -60.18 C-12.54 -60.27, -23.8 -59.54, -28.28 -58.09 C-32.76 -56.63, -35.76 -53.5, -38.22 -51.44 C-40.68 -49.38, -41.8 -47.94, -43.04 -45.71 C-44.27 -43.48, -45.08 -40.67, -45.64 -38.04 C-46.19 -35.41, -46.58 -32.26, -46.38 -29.94 C-46.17 -27.62, -45.32 -25.77, -44.41 -24.12 C-43.51 -22.48, -42.56 -21.41, -40.94 -20.06 C-39.31 -18.7, -37.27 -17.17, -34.67 -16 C-32.07 -14.83, -28.82 -13.65, -25.34 -13.04 C-21.86 -12.43, -17.97 -11.84, -13.79 -12.33 C-9.61 -12.82, -2.54 -15.37, -0.28 -15.98" stroke="#000000" stroke-width="1" fill="none"></path></g></g><g stroke-linecap="round" transform="translate(304.1920067429015 97.46444960361765) rotate(0 31.75044246854833 24.541143049614817)"><path d="M27.69 0.56 C34.04 -0.09, 43.2 2.01, 48.82 4.91 C54.43 7.8, 59.39 12.81, 61.37 17.92 C63.34 23.03, 63.19 30.83, 60.66 35.55 C58.13 40.27, 52.47 44.18, 46.2 46.21 C39.93 48.25, 29.72 48.89, 23.04 47.74 C16.36 46.58, 10.09 43.4, 6.12 39.31 C2.15 35.21, -1.22 28.41, -0.77 23.16 C-0.33 17.92, 2.59 11.67, 8.78 7.82 C14.97 3.96, 30.44 0.98, 36.35 0.02 C42.25 -0.94, 44.37 1.59, 44.23 2.06 M20.87 2.46 C26.54 0.24, 35.04 -1.33, 41.21 0.52 C47.38 2.37, 54.4 9.06, 57.9 13.54 C61.4 18.02, 63.06 22.66, 62.22 27.39 C61.37 32.13, 57.76 38.15, 52.85 41.96 C47.94 45.77, 39.61 49.89, 32.77 50.26 C25.93 50.63, 17.08 47.52, 11.8 44.2 C6.53 40.89, 2.29 35.52, 1.12 30.35 C-0.05 25.19, 1.25 18.18, 4.77 13.24 C8.29 8.29, 19.58 2.34, 22.24 0.67 C24.9 -1, 20.6 2.94, 20.72 3.22" stroke="#000000" stroke-width="1" fill="none"></path></g><g stroke-linecap="round" transform="translate(317.41634510094013 121.46387547278607) rotate(0 6.412650941923573 6.099838700854107)"><path d="M5.16 0.93 C6.63 0.65, 9.47 0.73, 10.55 1.43 C11.64 2.12, 11.29 3.92, 11.68 5.1 C12.07 6.28, 13.42 7.3, 12.9 8.5 C12.38 9.71, 10 11.75, 8.56 12.3 C7.12 12.85, 5.43 12.29, 4.25 11.8 C3.07 11.3, 2.19 10.29, 1.48 9.34 C0.76 8.38, -0.16 7.43, -0.04 6.06 C0.08 4.69, 0.83 2.04, 2.2 1.1 C3.58 0.17, 6.95 0.43, 8.2 0.43 C9.45 0.43, 9.89 0.98, 9.7 1.11 M7.72 -1.28 C9.05 -1.12, 10.26 0.68, 11.01 2.08 C11.76 3.47, 12.38 5.95, 12.23 7.11 C12.09 8.27, 10.77 8.44, 10.15 9.04 C9.52 9.64, 9.66 10.48, 8.49 10.69 C7.33 10.89, 4.77 10.92, 3.16 10.27 C1.55 9.62, -0.91 7.7, -1.15 6.8 C-1.4 5.89, 0.96 5.85, 1.68 4.85 C2.4 3.85, 2.32 1.8, 3.16 0.81 C3.99 -0.18, 5.7 -1.19, 6.69 -1.07 C7.68 -0.96, 8.78 1.21, 9.09 1.5" stroke="none" stroke-width="0" fill="#000000"></path><path d="M4.93 -0.56 C6.32 -1.01, 8.32 -1.12, 9.51 -0.48 C10.71 0.16, 11.44 1.83, 12.12 3.27 C12.79 4.7, 13.95 6.99, 13.57 8.12 C13.2 9.26, 11.2 9.38, 9.86 10.09 C8.52 10.79, 6.76 12.41, 5.54 12.35 C4.31 12.29, 3.36 10.68, 2.52 9.73 C1.69 8.77, 0.71 7.85, 0.52 6.63 C0.34 5.41, 0.66 3.51, 1.43 2.41 C2.2 1.3, 4.41 0.49, 5.16 -0.01 C5.91 -0.51, 5.86 -0.58, 5.95 -0.58 M7.92 -1.3 C9.03 -1.5, 8.97 -0.53, 10 0.48 C11.04 1.48, 14.07 3.12, 14.12 4.74 C14.18 6.36, 11.56 8.85, 10.33 10.22 C9.09 11.58, 7.65 12.63, 6.74 12.93 C5.83 13.23, 5.78 12.63, 4.89 12.03 C4.01 11.43, 1.96 10.47, 1.43 9.31 C0.9 8.15, 1.34 6.22, 1.71 5.09 C2.07 3.96, 2.9 3.43, 3.64 2.53 C4.37 1.64, 5.37 -0.06, 6.13 -0.29 C6.89 -0.51, 8.32 0.81, 8.2 1.19" stroke="#000000" stroke-width="1" fill="none"></path></g><g stroke-linecap="round" transform="translate(324.42028801335937 122.75465951433296) rotate(0 1.2512489642777496 1.5640612053472083)"><path d="M2.5 1.56 C2.5 1.65, 2.5 1.75, 2.48 1.84 C2.47 1.92, 2.45 2.01, 2.43 2.1 C2.4 2.18, 2.37 2.27, 2.33 2.35 C2.3 2.42, 2.26 2.5, 2.21 2.57 C2.16 2.64, 2.11 2.7, 2.06 2.76 C2 2.82, 1.94 2.87, 1.88 2.92 C1.81 2.96, 1.75 3, 1.68 3.03 C1.61 3.06, 1.54 3.09, 1.47 3.1 C1.4 3.12, 1.32 3.13, 1.25 3.13 C1.18 3.13, 1.11 3.12, 1.03 3.1 C0.96 3.09, 0.89 3.06, 0.82 3.03 C0.76 3, 0.69 2.96, 0.63 2.92 C0.56 2.87, 0.5 2.82, 0.45 2.76 C0.39 2.7, 0.34 2.64, 0.29 2.57 C0.25 2.5, 0.2 2.42, 0.17 2.35 C0.13 2.27, 0.1 2.18, 0.08 2.1 C0.05 2.01, 0.03 1.92, 0.02 1.84 C0.01 1.75, 0 1.65, 0 1.56 C0 1.47, 0.01 1.38, 0.02 1.29 C0.03 1.2, 0.05 1.11, 0.08 1.03 C0.1 0.94, 0.13 0.86, 0.17 0.78 C0.2 0.7, 0.25 0.63, 0.29 0.56 C0.34 0.49, 0.39 0.42, 0.45 0.37 C0.5 0.31, 0.56 0.25, 0.63 0.21 C0.69 0.16, 0.76 0.13, 0.82 0.09 C0.89 0.06, 0.96 0.04, 1.03 0.02 C1.11 0.01, 1.18 0, 1.25 0 C1.32 0, 1.4 0.01, 1.47 0.02 C1.54 0.04, 1.61 0.06, 1.68 0.09 C1.75 0.13, 1.81 0.16, 1.88 0.21 C1.94 0.25, 2 0.31, 2.06 0.37 C2.11 0.42, 2.16 0.49, 2.21 0.56 C2.26 0.63, 2.3 0.7, 2.33 0.78 C2.37 0.86, 2.4 0.94, 2.43 1.03 C2.45 1.11, 2.47 1.2, 2.48 1.29 C2.5 1.38, 2.5 1.52, 2.5 1.56 C2.51 1.61, 2.51 1.52, 2.5 1.56" stroke="none" stroke-width="0" fill="#ffffff"></path><path d="M2.5 1.56 C2.5 1.65, 2.5 1.75, 2.48 1.84 C2.47 1.92, 2.45 2.01, 2.43 2.1 C2.4 2.18, 2.37 2.27, 2.33 2.35 C2.3 2.42, 2.26 2.5, 2.21 2.57 C2.16 2.64, 2.11 2.7, 2.06 2.76 C2 2.82, 1.94 2.87, 1.88 2.92 C1.81 2.96, 1.75 3, 1.68 3.03 C1.61 3.06, 1.54 3.09, 1.47 3.1 C1.4 3.12, 1.32 3.13, 1.25 3.13 C1.18 3.13, 1.11 3.12, 1.03 3.1 C0.96 3.09, 0.89 3.06, 0.82 3.03 C0.76 3, 0.69 2.96, 0.63 2.92 C0.56 2.87, 0.5 2.82, 0.45 2.76 C0.39 2.7, 0.34 2.64, 0.29 2.57 C0.25 2.5, 0.2 2.42, 0.17 2.35 C0.13 2.27, 0.1 2.18, 0.08 2.1 C0.05 2.01, 0.03 1.92, 0.02 1.84 C0.01 1.75, 0 1.65, 0 1.56 C0 1.47, 0.01 1.38, 0.02 1.29 C0.03 1.2, 0.05 1.11, 0.08 1.03 C0.1 0.94, 0.13 0.86, 0.17 0.78 C0.2 0.7, 0.25 0.63, 0.29 0.56 C0.34 0.49, 0.39 0.42, 0.45 0.37 C0.5 0.31, 0.56 0.25, 0.63 0.21 C0.69 0.16, 0.76 0.13, 0.82 0.09 C0.89 0.06, 0.96 0.04, 1.03 0.02 C1.11 0.01, 1.18 0, 1.25 0 C1.32 0, 1.4 0.01, 1.47 0.02 C1.54 0.04, 1.61 0.06, 1.68 0.09 C1.75 0.13, 1.81 0.16, 1.88 0.21 C1.94 0.25, 2 0.31, 2.06 0.37 C2.11 0.42, 2.16 0.49, 2.21 0.56 C2.26 0.63, 2.3 0.7, 2.33 0.78 C2.37 0.86, 2.4 0.94, 2.43 1.03 C2.45 1.11, 2.47 1.2, 2.48 1.29 C2.5 1.38, 2.5 1.52, 2.5 1.56 C2.51 1.61, 2.51 1.52, 2.5 1.56" stroke="#ffffff" stroke-width="1" fill="none"></path></g><g stroke-linecap="round"><g transform="translate(342.1203526765679 297.12451983896676) rotate(44.56478741533535 5.591116258521424 -0.9446687357711738)" fill-rule="evenodd"><path d="M0 0 L2.18 2.88 L7.33 6.51 L10.15 6.03 L12.4 4.54 L13.35 2.6 L12.97 0.02 L10.43 -3.7 L7.33 -7.03 L3.38 -8.44 L-0.01 -7.31 L-2.23 -4.39 L0 0" stroke="none" stroke-width="0" fill="#ffffff" fill-rule="evenodd"></path><path d="M0 0 C0.36 0.48, 0.96 1.8, 2.18 2.88 C3.4 3.97, 5.62 6.23, 7.33 6.51 C9.03 6.78, 11.46 5.62, 12.4 4.54 C13.34 3.45, 13.81 1.95, 12.97 0.02 C12.12 -1.9, 8.92 -5.62, 7.33 -7.03 C5.73 -8.44, 4.6 -8.39, 3.38 -8.44 C2.16 -8.48, 0.93 -7.98, -0.01 -7.31 C-0.94 -6.63, -2.23 -5.61, -2.23 -4.39 C-2.22 -3.17, -0.37 -0.73, 0 0 M0 0 C0.36 0.48, 0.96 1.8, 2.18 2.88 C3.4 3.97, 5.62 6.23, 7.33 6.51 C9.03 6.78, 11.46 5.62, 12.4 4.54 C13.34 3.45, 13.81 1.95, 12.97 0.02 C12.12 -1.9, 8.92 -5.62, 7.33 -7.03 C5.73 -8.44, 4.6 -8.39, 3.38 -8.44 C2.16 -8.48, 0.93 -7.98, -0.01 -7.31 C-0.94 -6.63, -2.23 -5.61, -2.23 -4.39 C-2.22 -3.17, -0.37 -0.73, 0 0" stroke="#000000" stroke-width="1" fill="none"></path></g></g><g stroke-linecap="round"><g transform="translate(334.103754336527 203.65170547704372) rotate(87.46133340668324 4.523716781155599 -0.2270071087493477)" fill-rule="evenodd"><path d="M0 0 L4.91 6.25 L7.15 7.93 L9.68 7.15 L11.37 5.24 L5.8 -4.43 L2.32 -8.31 L-1.06 -7.09 L-2.31 -5.11 L0 0" stroke="none" stroke-width="0" fill="#ffffff" fill-rule="evenodd"></path><path d="M0 0 C0.47 0.63, 1.65 2.45, 2.84 3.77 C4.03 5.09, 5.73 7.69, 7.15 7.93 C8.57 8.18, 11.08 6.49, 11.37 5.24 C11.66 3.98, 9.82 2.02, 8.89 0.41 C7.96 -1.2, 6.89 -2.97, 5.8 -4.43 C4.71 -5.88, 3.47 -7.86, 2.32 -8.31 C1.18 -8.75, -0.29 -7.62, -1.06 -7.09 C-1.83 -6.55, -2.18 -5.78, -2.31 -5.11 C-2.44 -4.44, -2.23 -3.91, -1.84 -3.06 C-1.46 -2.21, -0.31 -0.51, 0 0 M0 0 C0.47 0.63, 1.65 2.45, 2.84 3.77 C4.03 5.09, 5.73 7.69, 7.15 7.93 C8.57 8.18, 11.08 6.49, 11.37 5.24 C11.66 3.98, 9.82 2.02, 8.89 0.41 C7.96 -1.2, 6.89 -2.97, 5.8 -4.43 C4.71 -5.88, 3.47 -7.86, 2.32 -8.31 C1.18 -8.75, -0.29 -7.62, -1.06 -7.09 C-1.83 -6.55, -2.18 -5.78, -2.31 -5.11 C-2.44 -4.44, -2.23 -3.91, -1.84 -3.06 C-1.46 -2.21, -0.31 -0.51, 0 0" stroke="#000000" stroke-width="1" fill="none"></path></g></g><g stroke-linecap="round" transform="translate(62.80674716616488 102.39636169054813) rotate(357.0832720341029 76.13937019988731 64.96834291187291)"><path d="M152.28 64.97 C152.28 67.39, 152.12 69.83, 151.8 72.24 C151.48 74.65, 151 77.06, 150.37 79.43 C149.74 81.79, 148.94 84.14, 148.01 86.43 C147.07 88.71, 145.97 90.97, 144.74 93.16 C143.51 95.34, 142.12 97.48, 140.61 99.53 C139.1 101.59, 137.44 103.58, 135.67 105.48 C133.9 107.37, 131.99 109.19, 129.98 110.91 C127.97 112.62, 125.83 114.25, 123.61 115.76 C121.39 117.27, 119.05 118.69, 116.65 119.98 C114.24 121.27, 111.74 122.45, 109.18 123.5 C106.61 124.55, 103.97 125.49, 101.29 126.29 C98.6 127.09, 95.85 127.77, 93.08 128.31 C90.31 128.85, 87.49 129.26, 84.66 129.53 C81.84 129.8, 78.98 129.94, 76.14 129.94 C73.3 129.94, 70.44 129.8, 67.61 129.53 C64.79 129.26, 61.97 128.85, 59.2 128.31 C56.43 127.77, 53.67 127.09, 50.99 126.29 C48.31 125.49, 45.66 124.55, 43.1 123.5 C40.54 122.45, 38.04 121.27, 35.63 119.98 C33.22 118.69, 30.89 117.27, 28.67 115.76 C26.45 114.25, 24.31 112.62, 22.3 110.91 C20.29 109.19, 18.38 107.37, 16.61 105.48 C14.84 103.58, 13.18 101.59, 11.67 99.53 C10.16 97.48, 8.77 95.34, 7.54 93.16 C6.31 90.97, 5.21 88.71, 4.27 86.43 C3.33 84.14, 2.54 81.79, 1.91 79.43 C1.28 77.06, 0.8 74.65, 0.48 72.24 C0.16 69.83, 0 67.39, 0 64.97 C0 62.54, 0.16 60.1, 0.48 57.69 C0.8 55.28, 1.28 52.88, 1.91 50.51 C2.54 48.15, 3.33 45.8, 4.27 43.51 C5.21 41.22, 6.31 38.96, 7.54 36.78 C8.77 34.6, 10.16 32.46, 11.67 30.4 C13.18 28.35, 14.84 26.36, 16.61 24.46 C18.38 22.57, 20.29 20.74, 22.3 19.03 C24.31 17.31, 26.45 15.69, 28.67 14.17 C30.89 12.66, 33.22 11.25, 35.63 9.96 C38.04 8.67, 40.54 7.49, 43.1 6.43 C45.66 5.38, 48.31 4.45, 50.99 3.65 C53.67 2.84, 56.43 2.17, 59.2 1.63 C61.97 1.09, 64.79 0.68, 67.61 0.41 C70.44 0.14, 73.3 0, 76.14 0 C78.98 0, 81.84 0.14, 84.66 0.41 C87.49 0.68, 90.31 1.09, 93.08 1.63 C95.85 2.17, 98.6 2.84, 101.29 3.65 C103.97 4.45, 106.61 5.38, 109.18 6.43 C111.74 7.49, 114.24 8.67, 116.65 9.96 C119.05 11.25, 121.39 12.66, 123.61 14.17 C125.83 15.69, 127.97 17.31, 129.98 19.03 C131.99 20.74, 133.9 22.57, 135.67 24.46 C137.44 26.36, 139.1 28.35, 140.61 30.4 C142.12 32.46, 143.51 34.6, 144.74 36.78 C145.97 38.96, 147.07 41.22, 148.01 43.51 C148.94 45.8, 149.74 48.15, 150.37 50.51 C151 52.88, 151.48 55.28, 151.8 57.69 C152.12 60.1, 152.2 63.76, 152.28 64.97 C152.36 66.18, 152.36 63.76, 152.28 64.97" stroke="none" stroke-width="0" fill="#ced4da"></path><path d="M152.28 64.97 C152.28 67.39, 152.12 69.83, 151.8 72.24 C151.48 74.65, 151 77.06, 150.37 79.43 C149.74 81.79, 148.94 84.14, 148.01 86.43 C147.07 88.71, 145.97 90.97, 144.74 93.16 C143.51 95.34, 142.12 97.48, 140.61 99.53 C139.1 101.59, 137.44 103.58, 135.67 105.48 C133.9 107.37, 131.99 109.19, 129.98 110.91 C127.97 112.62, 125.83 114.25, 123.61 115.76 C121.39 117.27, 119.05 118.69, 116.65 119.98 C114.24 121.27, 111.74 122.45, 109.18 123.5 C106.61 124.55, 103.97 125.49, 101.29 126.29 C98.6 127.09, 95.85 127.77, 93.08 128.31 C90.31 128.85, 87.49 129.26, 84.66 129.53 C81.84 129.8, 78.98 129.94, 76.14 129.94 C73.3 129.94, 70.44 129.8, 67.61 129.53 C64.79 129.26, 61.97 128.85, 59.2 128.31 C56.43 127.77, 53.67 127.09, 50.99 126.29 C48.31 125.49, 45.66 124.55, 43.1 123.5 C40.54 122.45, 38.04 121.27, 35.63 119.98 C33.22 118.69, 30.89 117.27, 28.67 115.76 C26.45 114.25, 24.31 112.62, 22.3 110.91 C20.29 109.19, 18.38 107.37, 16.61 105.48 C14.84 103.58, 13.18 101.59, 11.67 99.53 C10.16 97.48, 8.77 95.34, 7.54 93.16 C6.31 90.97, 5.21 88.71, 4.27 86.43 C3.33 84.14, 2.54 81.79, 1.91 79.43 C1.28 77.06, 0.8 74.65, 0.48 72.24 C0.16 69.83, 0 67.39, 0 64.97 C0 62.54, 0.16 60.1, 0.48 57.69 C0.8 55.28, 1.28 52.88, 1.91 50.51 C2.54 48.15, 3.33 45.8, 4.27 43.51 C5.21 41.22, 6.31 38.96, 7.54 36.78 C8.77 34.6, 10.16 32.46, 11.67 30.4 C13.18 28.35, 14.84 26.36, 16.61 24.46 C18.38 22.57, 20.29 20.74, 22.3 19.03 C24.31 17.31, 26.45 15.69, 28.67 14.17 C30.89 12.66, 33.22 11.25, 35.63 9.96 C38.04 8.67, 40.54 7.49, 43.1 6.43 C45.66 5.38, 48.31 4.45, 50.99 3.65 C53.67 2.84, 56.43 2.17, 59.2 1.63 C61.97 1.09, 64.79 0.68, 67.61 0.41 C70.44 0.14, 73.3 0, 76.14 0 C78.98 0, 81.84 0.14, 84.66 0.41 C87.49 0.68, 90.31 1.09, 93.08 1.63 C95.85 2.17, 98.6 2.84, 101.29 3.65 C103.97 4.45, 106.61 5.38, 109.18 6.43 C111.74 7.49, 114.24 8.67, 116.65 9.96 C119.05 11.25, 121.39 12.66, 123.61 14.17 C125.83 15.69, 127.97 17.31, 129.98 19.03 C131.99 20.74, 133.9 22.57, 135.67 24.46 C137.44 26.36, 139.1 28.35, 140.61 30.4 C142.12 32.46, 143.51 34.6, 144.74 36.78 C145.97 38.96, 147.07 41.22, 148.01 43.51 C148.94 45.8, 149.74 48.15, 150.37 50.51 C151 52.88, 151.48 55.28, 151.8 57.69 C152.12 60.1, 152.2 63.76, 152.28 64.97 C152.36 66.18, 152.36 63.76, 152.28 64.97" stroke="#454342" stroke-width="1" fill="none"></path></g><g stroke-linecap="round" transform="translate(29.476315953853657 113.9459891228858) rotate(357.0832720341029 43.8021859451089 35.570902680256225)"><path d="M87.6 35.57 C87.6 37.26, 87.45 38.96, 87.16 40.63 C86.86 42.3, 86.42 43.97, 85.83 45.59 C85.24 47.21, 84.51 48.81, 83.65 50.35 C82.78 51.88, 81.77 53.38, 80.65 54.8 C79.53 56.22, 78.27 57.59, 76.91 58.86 C75.54 60.14, 74.06 61.35, 72.49 62.45 C70.92 63.56, 69.23 64.58, 67.48 65.5 C65.74 66.41, 63.89 67.23, 62 67.93 C60.11 68.63, 58.14 69.23, 56.14 69.7 C54.15 70.18, 52.09 70.54, 50.04 70.78 C47.98 71.02, 45.88 71.14, 43.8 71.14 C41.72 71.14, 39.63 71.02, 37.57 70.78 C35.51 70.54, 33.46 70.18, 31.46 69.7 C29.47 69.23, 27.5 68.63, 25.61 67.93 C23.72 67.23, 21.87 66.41, 20.12 65.5 C18.37 64.58, 16.69 63.56, 15.12 62.45 C13.55 61.35, 12.06 60.14, 10.7 58.86 C9.34 57.59, 8.08 56.22, 6.95 54.8 C5.83 53.38, 4.82 51.88, 3.96 50.35 C3.1 48.81, 2.36 47.21, 1.77 45.59 C1.19 43.97, 0.74 42.3, 0.45 40.63 C0.15 38.96, 0 37.26, 0 35.57 C0 33.88, 0.15 32.18, 0.45 30.51 C0.74 28.84, 1.19 27.17, 1.77 25.55 C2.36 23.93, 3.1 22.33, 3.96 20.79 C4.82 19.26, 5.83 17.76, 6.95 16.34 C8.08 14.92, 9.34 13.55, 10.7 12.28 C12.06 11, 13.55 9.79, 15.12 8.69 C16.69 7.58, 18.37 6.56, 20.12 5.65 C21.87 4.73, 23.72 3.92, 25.61 3.21 C27.5 2.51, 29.47 1.92, 31.46 1.44 C33.46 0.97, 35.51 0.6, 37.57 0.36 C39.63 0.12, 41.72 0, 43.8 0 C45.88 0, 47.98 0.12, 50.04 0.36 C52.09 0.6, 54.15 0.97, 56.14 1.44 C58.14 1.92, 60.11 2.51, 62 3.21 C63.89 3.92, 65.74 4.73, 67.48 5.65 C69.23 6.56, 70.92 7.58, 72.49 8.69 C74.06 9.79, 75.54 11, 76.91 12.28 C78.27 13.55, 79.53 14.92, 80.65 16.34 C81.77 17.76, 82.78 19.26, 83.65 20.79 C84.51 22.33, 85.24 23.93, 85.83 25.55 C86.42 27.17, 86.86 28.84, 87.16 30.51 C87.45 32.18, 87.53 34.73, 87.6 35.57 C87.68 36.41, 87.68 34.73, 87.6 35.57" stroke="none" stroke-width="0" fill="#ffffff"></path><path d="M87.6 35.57 C87.6 37.26, 87.45 38.96, 87.16 40.63 C86.86 42.3, 86.42 43.97, 85.83 45.59 C85.24 47.21, 84.51 48.81, 83.65 50.35 C82.78 51.88, 81.77 53.38, 80.65 54.8 C79.53 56.22, 78.27 57.59, 76.91 58.86 C75.54 60.14, 74.06 61.35, 72.49 62.45 C70.92 63.56, 69.23 64.58, 67.48 65.5 C65.74 66.41, 63.89 67.23, 62 67.93 C60.11 68.63, 58.14 69.23, 56.14 69.7 C54.15 70.18, 52.09 70.54, 50.04 70.78 C47.98 71.02, 45.88 71.14, 43.8 71.14 C41.72 71.14, 39.63 71.02, 37.57 70.78 C35.51 70.54, 33.46 70.18, 31.46 69.7 C29.47 69.23, 27.5 68.63, 25.61 67.93 C23.72 67.23, 21.87 66.41, 20.12 65.5 C18.37 64.58, 16.69 63.56, 15.12 62.45 C13.55 61.35, 12.06 60.14, 10.7 58.86 C9.34 57.59, 8.08 56.22, 6.95 54.8 C5.83 53.38, 4.82 51.88, 3.96 50.35 C3.1 48.81, 2.36 47.21, 1.77 45.59 C1.19 43.97, 0.74 42.3, 0.45 40.63 C0.15 38.96, 0 37.26, 0 35.57 C0 33.88, 0.15 32.18, 0.45 30.51 C0.74 28.84, 1.19 27.17, 1.77 25.55 C2.36 23.93, 3.1 22.33, 3.96 20.79 C4.82 19.26, 5.83 17.76, 6.95 16.34 C8.08 14.92, 9.34 13.55, 10.7 12.28 C12.06 11, 13.55 9.79, 15.12 8.69 C16.69 7.58, 18.37 6.56, 20.12 5.65 C21.87 4.73, 23.72 3.92, 25.61 3.21 C27.5 2.51, 29.47 1.92, 31.46 1.44 C33.46 0.97, 35.51 0.6, 37.57 0.36 C39.63 0.12, 41.72 0, 43.8 0 C45.88 0, 47.98 0.12, 50.04 0.36 C52.09 0.6, 54.15 0.97, 56.14 1.44 C58.14 1.92, 60.11 2.51, 62 3.21 C63.89 3.92, 65.74 4.73, 67.48 5.65 C69.23 6.56, 70.92 7.58, 72.49 8.69 C74.06 9.79, 75.54 11, 76.91 12.28 C78.27 13.55, 79.53 14.92, 80.65 16.34 C81.77 17.76, 82.78 19.26, 83.65 20.79 C84.51 22.33, 85.24 23.93, 85.83 25.55 C86.42 27.17, 86.86 28.84, 87.16 30.51 C87.45 32.18, 87.53 34.73, 87.6 35.57 C87.68 36.41, 87.68 34.73, 87.6 35.57" stroke="#ffffff" stroke-width="1" fill="none"></path></g><g stroke-linecap="round" transform="translate(157.1936144102075 139.62963444017032) rotate(357.0832720341029 36.158851484888544 44.096160347425084)"><path d="M72.32 44.1 C72.32 46.19, 72.19 48.3, 71.95 50.37 C71.71 52.44, 71.34 54.51, 70.85 56.52 C70.37 58.53, 69.76 60.51, 69.05 62.41 C68.34 64.32, 67.5 66.18, 66.58 67.94 C65.65 69.7, 64.61 71.39, 63.49 72.97 C62.36 74.55, 61.13 76.05, 59.84 77.42 C58.54 78.79, 57.15 80.06, 55.71 81.19 C54.26 82.32, 52.74 83.34, 51.18 84.21 C49.62 85.08, 47.99 85.82, 46.35 86.41 C44.7 87, 43 87.45, 41.3 87.74 C39.61 88.04, 37.87 88.19, 36.16 88.19 C34.44 88.19, 32.71 88.04, 31.01 87.74 C29.32 87.45, 27.62 87, 25.97 86.41 C24.33 85.82, 22.7 85.08, 21.14 84.21 C19.58 83.34, 18.05 82.32, 16.61 81.19 C15.17 80.06, 13.78 78.79, 12.48 77.42 C11.18 76.05, 9.96 74.55, 8.83 72.97 C7.71 71.39, 6.67 69.7, 5.74 67.94 C4.81 66.18, 3.98 64.32, 3.27 62.41 C2.56 60.51, 1.95 58.53, 1.46 56.52 C0.98 54.51, 0.61 52.44, 0.37 50.37 C0.12 48.3, 0 46.19, 0 44.1 C0 42, 0.12 39.89, 0.37 37.82 C0.61 35.75, 0.98 33.68, 1.46 31.67 C1.95 29.67, 2.56 27.68, 3.27 25.78 C3.98 23.88, 4.81 22.02, 5.74 20.26 C6.67 18.5, 7.71 16.8, 8.83 15.22 C9.96 13.64, 11.18 12.14, 12.48 10.77 C13.78 9.4, 15.17 8.13, 16.61 7 C18.05 5.87, 19.58 4.85, 21.14 3.98 C22.7 3.12, 24.33 2.38, 25.97 1.79 C27.62 1.2, 29.32 0.75, 31.01 0.45 C32.71 0.15, 34.44 0, 36.16 0 C37.87 0, 39.61 0.15, 41.3 0.45 C43 0.75, 44.7 1.2, 46.35 1.79 C47.99 2.38, 49.62 3.12, 51.18 3.98 C52.74 4.85, 54.26 5.87, 55.71 7 C57.15 8.13, 58.54 9.4, 59.84 10.77 C61.13 12.14, 62.36 13.64, 63.49 15.22 C64.61 16.8, 65.65 18.5, 66.58 20.26 C67.5 22.02, 68.34 23.88, 69.05 25.78 C69.76 27.68, 70.37 29.67, 70.85 31.67 C71.34 33.68, 71.71 35.75, 71.95 37.82 C72.19 39.89, 72.26 43.05, 72.32 44.1 C72.38 45.14, 72.38 43.05, 72.32 44.1" stroke="none" stroke-width="0" fill="#ffffff"></path><path d="M72.32 44.1 C72.32 46.19, 72.19 48.3, 71.95 50.37 C71.71 52.44, 71.34 54.51, 70.85 56.52 C70.37 58.53, 69.76 60.51, 69.05 62.41 C68.34 64.32, 67.5 66.18, 66.58 67.94 C65.65 69.7, 64.61 71.39, 63.49 72.97 C62.36 74.55, 61.13 76.05, 59.84 77.42 C58.54 78.79, 57.15 80.06, 55.71 81.19 C54.26 82.32, 52.74 83.34, 51.18 84.21 C49.62 85.08, 47.99 85.82, 46.35 86.41 C44.7 87, 43 87.45, 41.3 87.74 C39.61 88.04, 37.87 88.19, 36.16 88.19 C34.44 88.19, 32.71 88.04, 31.01 87.74 C29.32 87.45, 27.62 87, 25.97 86.41 C24.33 85.82, 22.7 85.08, 21.14 84.21 C19.58 83.34, 18.05 82.32, 16.61 81.19 C15.17 80.06, 13.78 78.79, 12.48 77.42 C11.18 76.05, 9.96 74.55, 8.83 72.97 C7.71 71.39, 6.67 69.7, 5.74 67.94 C4.81 66.18, 3.98 64.32, 3.27 62.41 C2.56 60.51, 1.95 58.53, 1.46 56.52 C0.98 54.51, 0.61 52.44, 0.37 50.37 C0.12 48.3, 0 46.19, 0 44.1 C0 42, 0.12 39.89, 0.37 37.82 C0.61 35.75, 0.98 33.68, 1.46 31.67 C1.95 29.67, 2.56 27.68, 3.27 25.78 C3.98 23.88, 4.81 22.02, 5.74 20.26 C6.67 18.5, 7.71 16.8, 8.83 15.22 C9.96 13.64, 11.18 12.14, 12.48 10.77 C13.78 9.4, 15.17 8.13, 16.61 7 C18.05 5.87, 19.58 4.85, 21.14 3.98 C22.7 3.12, 24.33 2.38, 25.97 1.79 C27.62 1.2, 29.32 0.75, 31.01 0.45 C32.71 0.15, 34.44 0, 36.16 0 C37.87 0, 39.61 0.15, 41.3 0.45 C43 0.75, 44.7 1.2, 46.35 1.79 C47.99 2.38, 49.62 3.12, 51.18 3.98 C52.74 4.85, 54.26 5.87, 55.71 7 C57.15 8.13, 58.54 9.4, 59.84 10.77 C61.13 12.14, 62.36 13.64, 63.49 15.22 C64.61 16.8, 65.65 18.5, 66.58 20.26 C67.5 22.02, 68.34 23.88, 69.05 25.78 C69.76 27.68, 70.37 29.67, 70.85 31.67 C71.34 33.68, 71.71 35.75, 71.95 37.82 C72.19 39.89, 72.26 43.05, 72.32 44.1 C72.38 45.14, 72.38 43.05, 72.32 44.1" stroke="#ffffff" stroke-width="1" fill="none"></path></g><g stroke-linecap="round" transform="translate(92.69314473619056 169.97819794588816) rotate(17.262730698613876 116.70783771951835 16.75654093202155)"><path d="M1.11 -0.11 L235.2 0.75 L234.91 35.28 L-1.96 34.73" stroke="none" stroke-width="0" fill="#ccbdac"></path><path d="M1.12 1.1 C86.66 0.11, 176.5 0.06, 233.52 0.41 M-0.03 0.02 C53.61 1.03, 106.13 1.98, 234.12 0.73 M235.27 0.29 C232.8 11.18, 234.23 26.5, 234.5 32.15 M233.63 0.13 C234.25 9.53, 234.01 18.79, 234.23 33.28 M233.58 33.28 C143.5 34.08, 54.78 34.13, -1.59 33.17 M233.93 33.88 C164.49 31.87, 95.96 31.85, -0.24 33.51 M-0.38 33.05 C-1.71 25.47, 1.7 14.2, 1.84 -1.36 M0.21 33.85 C-0.89 21.41, -1.05 11.56, -0.79 -0.53" stroke="#454342" stroke-width="1" fill="none"></path></g><g stroke-linecap="round" transform="translate(238.87614772987206 191.71173763760765) rotate(16.539802013379976 36.158851484888544 16.32250513768483)"><path d="M0 0 C0 0, 0 0, 0 0 M0 0 C0 0, 0 0, 0 0 M0.53 6.25 C1 4.72, 2.88 2.92, 5.7 -0.02 M0.07 6.11 C1.09 4.96, 2.68 3.19, 5.01 0.52 M-0.88 13.03 C2 8.62, 5.34 4.4, 10.77 -0.62 M0.05 12.06 C3.66 8.32, 5.36 5.81, 10.42 0.32 M-1.92 17.34 C5.37 15.22, 5.97 9.02, 14.87 2.11 M0.11 18.36 C3.17 14.84, 6.8 10.57, 15.33 0.58 M0.97 24.68 C7.45 15.29, 13.88 8.64, 20.54 -0.8 M1.02 23.6 C9.25 13.87, 16.81 4.95, 21.45 -0.87 M-0.48 28.96 C11.14 21.58, 16.62 11.06, 25.61 1.05 M-0.1 30.2 C8.83 19, 18.85 8.61, 27.24 0.27 M1.49 34.66 C12.65 25.79, 21.56 14.85, 32.22 -1.36 M0.93 33.85 C12.17 23.26, 22.97 9.23, 30.98 -0.09 M8.73 33.47 C13.58 26.27, 22.73 17.35, 36.52 0.55 M8.28 34.23 C18.21 21.58, 28.05 9.55, 37.09 1.18 M14.11 34.2 C18.74 25.82, 27.62 19.77, 40.74 -1.97 M11.81 35.25 C17.63 27.18, 24.84 19.94, 42.86 -0.21 M16.92 35.59 C28.96 22.87, 40.73 7.97, 46.86 2.21 M17.07 34.14 C26.69 25.8, 33.9 15.99, 46.86 -0.47 M21.15 35.22 C32.51 24.74, 39.79 15.12, 52.69 1.13 M22.34 34.71 C28.46 27.38, 35.52 20.54, 53.65 -0.34 M27.66 34.62 C37.5 25.24, 45.59 12.23, 57.56 0.95 M29.43 34.73 C37.28 23.13, 47.72 11.59, 58.18 0.39 M31.79 36.4 C39.61 26.27, 45.81 19.77, 62.37 -0.99 M34.02 35.43 C43.53 23.35, 52.05 12.26, 64.55 0.27 M39.48 33.39 C51.48 20.5, 59.81 10.03, 67.25 1.01 M38.44 34.86 C50.6 21.97, 61.9 7.42, 68.35 -0.33 M44.91 33.73 C51.76 27.08, 57.24 18.63, 74.41 -0.42 M44.02 35.42 C54.63 21.89, 67.4 7.21, 72.13 1.69 M50.6 34.03 C55.11 26.95, 63.55 21.69, 74.34 6.73 M49.85 33.22 C56.44 27.51, 61.11 20.63, 74.4 6.89 M53.07 32.49 C57.48 31.25, 62.88 24.44, 74.6 13.6 M55.16 33.57 C62.22 25.92, 68.35 18.49, 73.02 13.4 M58.92 34 C63.21 28.59, 67.68 26.49, 74.14 19.46 M60.06 34.37 C64.65 28.8, 68.76 24.79, 74.25 18.15 M66.1 34.95 C67.98 32.96, 69.54 29.18, 73.44 24.25 M65.74 33.92 C67.69 31.44, 70.37 28.67, 73.51 25.2 M-0.31 32.37 C-0.31 32.37, -0.31 32.37, -0.31 32.37 M-0.31 32.37 C-0.31 32.37, -0.31 32.37, -0.31 32.37 M6.51 32.52 C4.45 31.52, 2.84 30.13, -0.53 27.5 M6.2 32.51 C5.16 31.48, 3.6 30.46, 0.13 27.19 M12.02 33.19 C10.31 30.66, 4.64 27.9, -0.21 22.65 M12.44 33.27 C8.86 29.38, 5.93 27.27, -0.42 22.17 M18.07 32.26 C10.95 28.76, 5.01 23.14, 1.47 15.01 M17.82 32.52 C12.25 27.83, 5.05 22.05, 0.22 16.09 M25.59 32.97 C14.05 24.79, 6.41 17.41, 0.96 12.99 M25.39 32.46 C18.98 27.15, 14.05 23.05, 1.35 11.75 M31.15 31.92 C21.92 24.01, 10.75 13.65, 1.16 5.18 M30.25 32.81 C18.21 23.33, 8.44 12.32, -0.66 5.14 M36.93 30.96 C25.44 22.2, 11.46 9.4, -0.47 0.81 M37.3 32.98 C26.66 24.01, 17.04 15.83, -0.26 0.17 M44.15 31.85 C26.72 18.54, 13.19 5.34, 4.03 -1.59 M43.52 32.95 C33.29 24.4, 24.31 16.96, 1.7 -2.37 M50.31 33.25 C34.64 20.51, 21.82 5.95, 7 -0.44 M47.84 32.68 C37.13 23.29, 26 12.62, 8.67 -2.82 M54.24 31.91 C40.05 16.78, 22.85 4.25, 13.43 -1.16 M54.89 33.54 C39.06 19.37, 23.37 6.56, 13.3 -2.36 M61.76 33.15 C54 23.48, 45.44 18.41, 18.98 -3.95 M61.35 33.15 C51.81 25.19, 44.15 17.29, 20.16 -2.49 M66.55 31.25 C57.18 24.54, 47.56 14.73, 27 -1.17 M67.51 32.04 C54.87 21.94, 40.63 9.75, 25.46 -2.06 M71 31.32 C60.27 21.76, 46.32 7.56, 33.5 -0.97 M72.82 31.87 C60.13 20.78, 47.9 9.86, 32.64 -2.63 M73.1 28.42 C66.64 22.94, 60.3 14.19, 40.66 -0.76 M73.42 26.82 C64.17 19.01, 54.1 10.13, 38.69 -1.63 M73.36 21.2 C61.3 13.51, 52.86 1.86, 46.06 -2.12 M71.82 21.61 C64.15 15.08, 56.38 8.53, 43.94 -2.9 M73.64 16.52 C68.1 13.64, 63.66 9.39, 51.74 -1.72 M72.35 16.35 C65.26 9.16, 57.33 3.21, 51.92 -3.36 M72.01 12.57 C69.95 8.37, 62.22 4.43, 57.85 -4.75 M72.75 10.03 C65.99 6.09, 61.77 1.2, 57.59 -2.1 M72.12 6.79 C70.22 4.03, 66.49 -0.92, 63.4 -1.26 M73.46 5.46 C70.67 3.47, 66.92 0.59, 63.05 -2.03 M72.81 0.27 C71.65 -0.47, 70.41 -1.19, 69.35 -2.67 M72.57 0.29 C72.07 -0.35, 71.35 -0.77, 69.55 -2.14" stroke="#595755" stroke-width="0.5" fill="none"></path><path d="M-1.34 -1.21 C14.95 0.73, 29.79 0, 73.04 1.36 M-0.24 0.52 C23.19 -0.17, 45.93 0.33, 72.26 -0.27 M73.67 -1.07 C70.79 8.59, 72.75 20.2, 73.16 32.37 M71.84 -0.59 C71.63 8.32, 71.97 15, 72.93 33.57 M71.63 33.73 C48.55 32.92, 26.44 32.19, -1.42 33.14 M72.77 32.56 C49.05 31.79, 23.48 32, -0.13 32.8 M-0.94 31.7 C1.81 23.54, -1.6 17.09, -0.97 1.59 M-0.82 32.97 C0.74 20.45, -0.01 9.11, -0.64 -0.16" stroke="#454342" stroke-width="1" fill="none"></path></g><g stroke-linecap="round"><g transform="translate(299.4411657165916 93.92158925239653) rotate(0 -4.823468453314604 -7.15253599843847)"><path d="M-0.11 -0.05 C-1.49 -2.15, -7.22 -10.3, -8.79 -12.32 M-1.62 -1.13 C-3.09 -3.61, -8.07 -12.07, -9.54 -14.25" stroke="#454342" stroke-width="1" fill="none"></path></g></g><g stroke-linecap="round"><g transform="translate(296.2875627906765 73.8582097513819) rotate(0 24.787740737730758 -9.365517142278165)" fill-rule="evenodd"><path d="M-1.07 -1.28 L11.13 -16.71 L23.82 -21.52 L24.92 -17.83 L15.14 -8.92 L38.62 -18.22 L34.69 -8.18 L49.62 -10.56 L50.46 -6.25 L38.89 -1.86 L1.53 0.41" stroke="none" stroke-width="0" fill="#fa5252" fill-rule="evenodd"></path><path d="M-0.8 0.23 C1.22 -2.23, 7.73 -12.4, 12.08 -15.87 C16.44 -19.34, 24.97 -21.64, 25.33 -20.6 C25.68 -19.57, 11.97 -10.1, 14.22 -9.66 C16.47 -9.21, 35.79 -18.16, 38.8 -17.93 C41.82 -17.69, 30.49 -9.37, 32.29 -8.26 C34.1 -7.14, 48.37 -12.21, 49.63 -11.26 C50.88 -10.3, 47.55 -4.75, 39.83 -2.52 C32.11 -0.29, 9.49 1.56, 3.31 2.12 M0.98 -0.7 C2.88 -2.94, 7.48 -11.68, 11.38 -14.86 C15.28 -18.05, 23.93 -20.75, 24.38 -19.79 C24.83 -18.83, 11.89 -9.37, 14.07 -9.1 C16.26 -8.82, 34.29 -18.1, 37.5 -18.14 C40.71 -18.19, 31.28 -10.82, 33.34 -9.35 C35.4 -7.88, 48.41 -10.35, 49.86 -9.32 C51.31 -8.29, 50 -4.87, 42.04 -3.17 C34.08 -1.48, 8.48 -0.26, 2.09 0.85" stroke="#454342" stroke-width="1" fill="none"></path></g></g><g stroke-linecap="round" transform="translate(298.63293319421473 72.77254865213823) rotate(356.82589273371485 21.121833542104753 0.6855199623377466)"><path d="M0.53 -0.84 L42.9 0.25 L44.18 1.56 L1.17 3.25" stroke="none" stroke-width="0" fill="#fa5252"></path><path d="M1.73 -1.9 C14.52 -0.87, 33.37 -0.51, 43.17 1.01 M0.25 0.63 C11.14 1.08, 19.98 0.99, 42.58 0.32 M42.26 0.09 C42.26 0.31, 42.15 0.82, 42.21 1.43 M42.3 0.06 C42.31 0.41, 42.31 0.9, 42.21 1.37 M43.08 2.99 C31.67 3.04, 19.17 0.51, 0.43 -0.44 M41.58 0.75 C29.75 1.85, 17.73 2.54, -0.93 2.33 M-0.06 1.45 C0.12 0.88, 0.02 0.63, 0.09 -0.07 M0.03 1.41 C0.01 0.94, 0.04 0.67, -0.04 0" stroke="#fa5252" stroke-width="1" fill="none"></path></g><g stroke-linecap="round"><g transform="translate(311.4296432074708 90.39556646096139) rotate(0 3.6870457172861393 -9.663522438036136)"><path d="M0.01 0.31 C1.44 -2.5, 7.57 -14.64, 8.81 -17.8 M-1.44 -0.57 C-0.1 -3.66, 7.09 -16.82, 8.42 -19.64" stroke="#454342" stroke-width="1" fill="none"></path></g></g><g transform="translate(116.12405442713407 31.15501545027444) rotate(349.96955331094506 51.292623803421236 22.25906315997525)"><text x="0" y="30.518126319950497" font-family="Virgil, Segoe UI Emoji" font-size="34.84027277213518px" fill="#fa5252" text-anchor="start" style="white-space: pre;" direction="ltr">gotrim</text></g></svg>